<svg width="16" height="15" viewBox="0 0 16 15" fill="none" xmlns="http://www.w3.org/2000/svg">
<path d="M14.6875 5.45312C15.3984 5.5625 15.6992 6.4375 15.1797 6.98438L12.2812 9.77344L12.9648 13.7383C13.0469 14.3125 12.6094 14.7773 12.0898 14.7773C11.9531 14.7773 11.8164 14.7227 11.6797 14.668L8.125 12.7812L4.54297 14.668C4.40625 14.7227 4.26953 14.75 4.13281 14.75C3.61328 14.75 3.17578 14.3125 3.25781 13.7383L3.94141 9.74609L1.04297 6.95703C0.523438 6.4375 0.824219 5.5625 1.53516 5.45312L5.52734 4.87891L7.33203 1.24219C7.49609 0.914062 7.79688 0.75 8.09766 0.75C8.42578 0.75 8.72656 0.914062 8.89062 1.24219L10.6953 4.87891L14.6875 5.45312ZM11.3789 9.69141C11.3516 9.52734 11.4062 9.39062 11.5156 9.30859L14.5508 6.32812L10.3398 5.69922C10.2031 5.67188 10.0664 5.58984 10.0117 5.45312L8.125 1.625L6.21094 5.45312C6.15625 5.58984 6.01953 5.67188 5.88281 5.69922L1.67188 6.32812L4.89844 9.44531L4.13281 13.875L7.90625 11.9062C8.04297 11.8242 8.17969 11.8242 8.31641 11.9062L12.0898 13.875L11.3789 9.69141Z" fill="#777777"/>
</svg>
