<svg width="16" height="19" viewBox="0 0 16 19" fill="none" xmlns="http://www.w3.org/2000/svg">
<path d="M2.25 2.5C1.01953 2.5 0 3.51953 0 4.75V16C0 17.2656 1.01953 18.25 2.25 18.25H13.5C14.7656 18.25 15.75 17.2656 15.75 16V4.75C15.75 3.51953 14.7656 2.5 13.5 2.5H12.0938V1.09375C12.0938 0.636719 11.7422 0.25 11.25 0.25C10.793 0.25 10.4062 0.636719 10.4062 1.09375V2.5H5.34375V1.09375C5.34375 0.636719 4.92188 0.25 4.5 0.25C4.04297 0.25 3.65625 0.636719 3.65625 1.09375V2.5H2.25ZM1.6875 7H7.03125V10.6562H1.6875V7ZM8.71875 7H14.0625V10.6562H8.71875V7ZM14.0625 16C14.0625 16.3164 13.8164 16.5625 13.5 16.5625H8.71875V12.3438H14.0625V16ZM2.25 16.5625C1.96875 16.5625 1.6875 16.3164 1.6875 16V12.3438H7.03125V16.5625H2.25Z" fill="#CFCFCF"/>
</svg>
