<?xml version="1.0" standalone="no"?>
<!DOCTYPE svg PUBLIC "-//W3C//DTD SVG 20010904//EN"
 "http://www.w3.org/TR/2001/REC-SVG-20010904/DTD/svg10.dtd">
<svg version="1.0" xmlns="http://www.w3.org/2000/svg"
 width="900.000000pt" height="900.000000pt" viewBox="0 0 900.000000 900.000000"
 preserveAspectRatio="xMidYMid meet" >
<metadata>
Created by potrace 1.10, written by Peter Selinger 2001-2011
</metadata>
<g transform="translate(0.000000,900.000000) scale(0.100000,-0.100000)"
fill="#fff" stroke="none">
<path d="M334 6749 c-60 -27 -135 -99 -169 -161 -27 -49 -30 -61 -29 -153 0
-156 -1 -155 324 -470 91 -88 322 -313 514 -500 192 -187 381 -371 420 -409
39 -38 139 -135 221 -215 331 -322 790 -768 829 -806 54 -52 283 -275 735
-715 354 -345 578 -562 923 -898 205 -199 229 -212 383 -212 155 0 172 11 446
280 31 30 207 201 390 380 184 178 415 403 514 500 98 96 191 186 206 200 25
24 540 525 888 865 91 88 190 185 221 215 107 104 675 655 716 695 322 315
707 690 784 765 115 112 143 148 166 215 57 162 -26 351 -185 421 -45 20 -70
24 -156 24 -156 0 -160 -2 -430 -265 -28 -27 -118 -115 -200 -195 -83 -80
-307 -298 -499 -485 -192 -187 -440 -428 -550 -535 -111 -107 -275 -267 -366
-355 -90 -88 -183 -178 -206 -200 -23 -22 -131 -128 -240 -235 -110 -107 -343
-334 -519 -505 -175 -170 -343 -333 -372 -361 -29 -28 -174 -170 -323 -315
-149 -145 -278 -266 -287 -267 -9 -3 -83 62 -187 165 -157 155 -793 775 -925
902 -31 30 -126 122 -211 205 -377 367 -818 796 -879 855 -36 35 -131 128
-211 205 -80 78 -300 292 -489 476 -190 184 -444 432 -565 551 -368 361 -367
359 -535 358 -82 0 -115 -5 -147 -20z"/>
</g>
</svg>
