<svg width="80" height="80" viewBox="0 0 80 80" fill="none" xmlns="http://www.w3.org/2000/svg">
<rect width="80" height="80" fill="#E5E5E5"/>
<g id="Login" clip-path="url(#clip0_0_1)">
<rect width="1440" height="768" transform="translate(-40 -10)" fill="white"/>
<rect id="Rectangle 147" x="-40" y="-10" width="1440" height="768" fill="#272727"/>
<rect id="Rectangle 148" x="-40" y="-10" width="1440" height="100" fill="#323232" fill-opacity="0.6"/>
<g id="Group 48095730">
<circle id="Ellipse 16" cx="40" cy="40" r="40" fill="#D9D9D9" fill-opacity="0.02"/>
<circle id="Ellipse 15" cx="40.0002" cy="39.9992" r="31.8644" fill="#D9D9D9" fill-opacity="0.03"/>
<circle id="Ellipse 14" cx="40.4073" cy="40.4087" r="24.4068" fill="#D9D9D9" fill-opacity="0.05"/>
<g id="Mask group">
<mask id="mask0_0_1" style="mask-type:alpha" maskUnits="userSpaceOnUse" x="15" y="16" width="50" height="49">
<circle id="Ellipse 18" cx="40.4068" cy="40.4073" r="24.4073" fill="#D9D9D9"/>
</mask>
<g mask="url(#mask0_0_1)">
<g id="Group">
<g id="Group_2">
<path id="Vector" d="M15.412 31.4949C15.6358 31.6068 15.7476 31.6068 15.8595 31.7186C16.978 32.5016 18.0966 33.3964 19.327 33.9557C19.7744 34.1794 20.2218 34.2913 20.7811 34.4031C23.1301 34.6268 25.479 35.1861 27.828 35.6335C28.2754 35.7454 28.7228 35.7454 29.1703 35.7454C29.7295 35.7454 30.177 35.5217 30.4007 34.9624C30.6244 34.4031 30.2888 33.9557 29.8414 33.6202C28.8347 32.7253 27.6043 32.7253 26.3739 32.8372C26.0383 32.8372 25.7027 32.949 25.3672 32.949C26.0383 32.166 26.9332 31.6068 27.9399 31.6068C29.0584 31.6068 29.9532 31.2712 30.7362 30.4882C31.8548 29.3696 33.0852 29.2578 34.5393 29.8171C35.9934 30.3763 37.3357 31.0475 38.678 31.7186C39.5728 32.2779 40.3558 32.8372 41.0269 33.732C41.3625 34.2913 41.9218 34.7387 42.7048 34.7387C43.3759 34.6268 43.4878 34.4031 43.1522 33.9557C42.0336 32.5016 40.9151 31.1593 39.6847 29.9289C39.1254 29.2578 38.5661 28.6985 38.0068 28.0274C37.6713 27.6918 37.3357 27.3562 36.8883 27.2444C34.8749 26.6851 32.7496 26.1258 30.7362 25.5666C28.7228 25.0073 26.7094 25.3429 24.5842 25.6784C22.4589 26.1258 20.3337 25.9021 18.2084 25.1191L15.412 31.4949ZM32.0785 30.8238C31.6311 30.7119 31.4074 31.0475 31.1837 31.2712C30.8481 31.4949 30.9599 31.7186 31.2955 31.8305C31.6311 31.9423 32.0785 32.166 32.4141 32.3897C33.7563 32.949 34.763 33.9557 35.7697 34.9624C35.8816 35.1861 36.2172 35.4098 36.4409 35.298C36.6646 35.0743 36.4409 34.7387 36.329 34.515C35.3223 33.1727 34.2038 32.0542 32.7496 31.1593C32.4141 31.0475 32.1904 30.9356 32.0785 30.8238ZM33.0852 30.4882C34.2038 31.2712 35.2104 32.0542 36.1053 33.0609C36.6646 33.732 37.2238 34.4031 37.7831 34.9624C38.0068 35.1861 38.2305 35.5217 38.5661 35.298C38.7898 35.0743 38.5661 34.7387 38.3424 34.515C37.5594 33.2846 36.5527 32.2779 35.546 31.383C34.763 30.8238 33.98 30.4882 33.0852 30.4882ZM37.5594 32.2779C38.3424 33.1727 39.1254 34.1794 39.9084 35.0743C40.0202 35.298 40.2439 35.5217 40.4677 35.298C40.6914 35.1861 40.4677 34.8506 40.4677 34.7387C40.3558 34.515 40.2439 34.4031 40.1321 34.1794C39.5728 33.1727 38.5661 32.7253 37.5594 32.2779Z" fill="#DE2C1B"/>
</g>
<g id="Group_3">
<g id="Group_4">
<g id="Group_5">
<g id="Group_6">
<path id="Vector_2" d="M67.4242 47.6C65.299 45.1392 62.5026 43.6851 59.4825 42.6784C58.8114 42.4547 58.1402 42.4547 57.4691 42.4547C54.6727 42.4547 51.8763 42.1191 49.0799 41.8954C48.0732 41.7835 47.0665 41.6717 46.1717 41.6717C45.5006 41.5598 44.8294 41.7835 44.1583 42.1191C43.0397 42.7902 42.9279 43.7969 43.9346 44.6918C45.165 45.8103 46.6191 46.034 48.1851 45.8103C48.9681 45.6985 49.8629 45.4748 50.6459 45.3629C49.8629 46.2577 48.9681 47.1526 47.7377 47.2644C45.8361 47.3763 44.2702 48.2711 43.0397 49.7253C41.8093 51.1794 40.4671 51.4031 38.7892 50.9557C35.881 50.2845 33.0846 49.3897 30.4001 48.0474C29.6171 47.7119 29.1697 47.0407 28.4985 46.4815C28.0511 46.034 27.6037 45.5866 26.9326 45.251C26.2614 44.9155 25.5903 45.0273 25.031 45.251C24.4718 45.4748 24.4718 45.8103 24.8073 46.2577C25.9259 47.6 27.1563 48.6067 28.3867 49.8371C29.9527 51.2912 31.5186 52.5216 33.0846 53.9758C34.0913 54.9825 35.3217 55.318 36.664 55.5417C39.013 55.8773 41.3619 56.2129 43.599 56.6603C45.7243 57.1077 47.7377 56.7722 49.8629 56.4366C52.1 56.101 54.1134 55.0943 56.3505 54.8706C57.4691 54.7588 58.5876 54.7588 59.7062 54.8706C59.9299 54.8706 60.2655 54.9825 60.3773 54.9825L67.4242 47.6ZM41.6975 49.3897C42.033 49.5016 42.1449 49.3897 42.3686 49.2778C42.5923 49.0541 42.816 48.8304 43.0397 48.6067C43.2635 48.383 43.599 48.2711 43.4872 48.0474C43.3753 47.7119 43.0397 47.8237 42.816 47.7119C40.3552 47.0407 38.1181 46.034 36.3284 44.2443C35.9929 43.9088 35.5454 43.5732 34.9862 43.3495C34.6506 43.2377 34.4269 43.3495 34.5387 43.7969C34.5387 44.1325 34.8743 44.4681 35.098 44.6918C36.664 46.4815 38.5655 47.8237 40.6908 48.9423C40.9145 49.0541 41.3619 49.2778 41.6975 49.3897ZM40.9145 50.2845C40.8026 50.0608 40.6908 50.0608 40.5789 50.0608C39.013 49.3897 37.6707 48.4949 36.3284 47.4882C35.098 46.4815 33.9795 45.251 32.749 44.1325C32.4135 43.7969 31.8542 43.2377 31.4068 43.5732C30.9594 44.0206 31.5186 44.5799 31.7424 44.9155C33.3083 46.817 35.098 48.383 37.2233 49.5016C38.4537 50.1727 39.6841 50.2845 40.9145 50.2845ZM33.9795 48.4949C32.6372 47.1526 31.2949 45.8103 29.9527 44.4681C29.729 44.2443 29.3934 44.0206 29.0578 43.7969C28.6104 43.5732 28.3867 43.7969 28.4985 44.2443C28.6104 44.8036 28.946 45.1392 29.1697 45.5866C30.2882 47.2644 32.0779 47.8237 33.9795 48.4949Z" fill="white"/>
</g>
</g>
</g>
</g>
</g>
</g>
</g>
</g>
</g>
<defs>
<clipPath id="clip0_0_1">
<rect width="1440" height="768" fill="white" transform="translate(-40 -10)"/>
</clipPath>
</defs>
</svg>
