<svg width="352" height="80" viewBox="0 0 352 80" fill="none" xmlns="http://www.w3.org/2000/svg">
<circle cx="40" cy="40" r="40" fill="#D9D9D9" fill-opacity="0.02"/>
<circle cx="40.0002" cy="39.9992" r="31.8644" fill="#D9D9D9" fill-opacity="0.03"/>
<circle cx="40.4073" cy="40.4084" r="24.4068" fill="#D9D9D9" fill-opacity="0.05"/>
<mask id="mask0_14_1031" style="mask-type:alpha" maskUnits="userSpaceOnUse" x="15" y="16" width="50" height="49">
<circle cx="40.4068" cy="40.4073" r="24.4073" fill="#D9D9D9"/>
</mask>
<g mask="url(#mask0_14_1031)">
<path d="M15.412 31.4949C15.6358 31.6068 15.7476 31.6068 15.8595 31.7186C16.978 32.5016 18.0966 33.3964 19.327 33.9557C19.7744 34.1794 20.2218 34.2913 20.7811 34.4031C23.1301 34.6268 25.479 35.1861 27.828 35.6335C28.2754 35.7454 28.7228 35.7454 29.1703 35.7454C29.7295 35.7454 30.177 35.5217 30.4007 34.9624C30.6244 34.4031 30.2888 33.9557 29.8414 33.6201C28.8347 32.7253 27.6043 32.7253 26.3739 32.8372C26.0383 32.8372 25.7027 32.949 25.3672 32.949C26.0383 32.166 26.9332 31.6068 27.9399 31.6068C29.0584 31.6068 29.9532 31.2712 30.7362 30.4882C31.8548 29.3696 33.0852 29.2578 34.5393 29.8171C35.9934 30.3763 37.3357 31.0475 38.678 31.7186C39.5728 32.2779 40.3558 32.8372 41.0269 33.732C41.3625 34.2913 41.9218 34.7387 42.7048 34.7387C43.3759 34.6268 43.4878 34.4031 43.1522 33.9557C42.0336 32.5016 40.9151 31.1593 39.6847 29.9289C39.1254 29.2578 38.5661 28.6985 38.0068 28.0274C37.6713 27.6918 37.3357 27.3562 36.8883 27.2444C34.8749 26.6851 32.7496 26.1258 30.7362 25.5666C28.7228 25.0073 26.7094 25.3429 24.5842 25.6784C22.4589 26.1258 20.3337 25.9021 18.2084 25.1191L15.412 31.4949ZM32.0785 30.8238C31.6311 30.7119 31.4074 31.0475 31.1837 31.2712C30.8481 31.4949 30.9599 31.7186 31.2955 31.8305C31.6311 31.9423 32.0785 32.166 32.4141 32.3897C33.7563 32.949 34.763 33.9557 35.7697 34.9624C35.8816 35.1861 36.2172 35.4098 36.4409 35.298C36.6646 35.0743 36.4409 34.7387 36.329 34.515C35.3223 33.1727 34.2038 32.0542 32.7496 31.1593C32.4141 31.0475 32.1904 30.9356 32.0785 30.8238ZM33.0852 30.4882C34.2038 31.2712 35.2104 32.0542 36.1053 33.0609C36.6646 33.732 37.2238 34.4031 37.7831 34.9624C38.0068 35.1861 38.2305 35.5217 38.5661 35.298C38.7898 35.0743 38.5661 34.7387 38.3424 34.515C37.5594 33.2846 36.5527 32.2779 35.546 31.383C34.763 30.8238 33.98 30.4882 33.0852 30.4882ZM37.5594 32.2779C38.3424 33.1727 39.1254 34.1794 39.9084 35.0743C40.0202 35.298 40.2439 35.5217 40.4677 35.298C40.6914 35.1861 40.4677 34.8506 40.4677 34.7387C40.3558 34.515 40.2439 34.4031 40.1321 34.1794C39.5728 33.1727 38.5661 32.7253 37.5594 32.2779Z" fill="#DE2C1B"/>
<path d="M67.4242 47.6C65.2989 45.1392 62.5025 43.6851 59.4824 42.6784C58.8113 42.4547 58.1402 42.4547 57.469 42.4547C54.6726 42.4547 51.8763 42.1191 49.0799 41.8954C48.0732 41.7835 47.0665 41.6717 46.1716 41.6717C45.5005 41.5598 44.8294 41.7835 44.1582 42.1191C43.0397 42.7902 42.9278 43.7969 43.9345 44.6918C45.1649 45.8103 46.6191 46.034 48.185 45.8103C48.968 45.6985 49.8629 45.4748 50.6458 45.3629C49.8629 46.2577 48.968 47.1526 47.7376 47.2644C45.8361 47.3763 44.2701 48.2711 43.0397 49.7253C41.8093 51.1794 40.467 51.4031 38.7892 50.9557C35.8809 50.2845 33.0846 49.3897 30.4 48.0474C29.617 47.7119 29.1696 47.0407 28.4985 46.4815C28.0511 46.034 27.6036 45.5866 26.9325 45.251C26.2614 44.9155 25.5902 45.0273 25.031 45.251C24.4717 45.4748 24.4717 45.8103 24.8073 46.2577C25.9258 47.6 27.1562 48.6067 28.3866 49.8371C29.9526 51.2912 31.5186 52.5216 33.0846 53.9758C34.0913 54.9825 35.3217 55.318 36.6639 55.5417C39.0129 55.8773 41.3619 56.2129 43.599 56.6603C45.7242 57.1077 47.7376 56.7722 49.8629 56.4366C52.1 56.101 54.1134 55.0943 56.3505 54.8706C57.469 54.7588 58.5876 54.7588 59.7061 54.8706C59.9298 54.8706 60.2654 54.9825 60.3773 54.9825L67.4242 47.6ZM41.6974 49.3897C42.033 49.5016 42.1448 49.3897 42.3686 49.2778C42.5923 49.0541 42.816 48.8304 43.0397 48.6067C43.2634 48.383 43.599 48.2711 43.4871 48.0474C43.3753 47.7119 43.0397 47.8237 42.816 47.7119C40.3552 47.0407 38.118 46.034 36.3284 44.2443C35.9928 43.9088 35.5454 43.5732 34.9861 43.3495C34.6505 43.2377 34.4268 43.3495 34.5387 43.7969C34.5387 44.1325 34.8742 44.4681 35.098 44.6918C36.6639 46.4815 38.5655 47.8237 40.6907 48.9423C40.9144 49.0541 41.3619 49.2778 41.6974 49.3897ZM40.9144 50.2845C40.8026 50.0608 40.6907 50.0608 40.5789 50.0608C39.0129 49.3897 37.6706 48.4949 36.3284 47.4882C35.098 46.4815 33.9794 45.251 32.749 44.1325C32.4134 43.7969 31.8541 43.2377 31.4067 43.5732C30.9593 44.0206 31.5186 44.5799 31.7423 44.9155C33.3083 46.817 35.098 48.383 37.2232 49.5016C38.4536 50.1727 39.684 50.2845 40.9144 50.2845ZM33.9794 48.4949C32.6371 47.1526 31.2949 45.8103 29.9526 44.4681C29.7289 44.2443 29.3933 44.0206 29.0578 43.7969C28.6103 43.5732 28.3866 43.7969 28.4985 44.2443C28.6103 44.8036 28.9459 45.1392 29.1696 45.5866C30.2882 47.2644 32.0779 47.8237 33.9794 48.4949Z" fill="white"/>
</g>
<path d="M94.61 34C94.214 34 93.908 33.898 93.692 33.694C93.488 33.478 93.386 33.172 93.386 32.776V22.534C93.386 22.138 93.488 21.838 93.692 21.634C93.908 21.418 94.214 21.31 94.61 21.31H101.036C101.336 21.31 101.564 21.388 101.72 21.544C101.888 21.7 101.972 21.922 101.972 22.21C101.972 22.51 101.888 22.744 101.72 22.912C101.564 23.068 101.336 23.146 101.036 23.146H95.6V26.638H100.64C100.952 26.638 101.186 26.716 101.342 26.872C101.498 27.028 101.576 27.256 101.576 27.556C101.576 27.856 101.498 28.084 101.342 28.24C101.186 28.396 100.952 28.474 100.64 28.474H95.6V32.164H101.036C101.336 32.164 101.564 32.242 101.72 32.398C101.888 32.554 101.972 32.782 101.972 33.082C101.972 33.382 101.888 33.61 101.72 33.766C101.564 33.922 101.336 34 101.036 34H94.61ZM105.062 34.144C104.702 34.144 104.426 34.048 104.234 33.856C104.042 33.652 103.946 33.364 103.946 32.992V26.188C103.946 25.816 104.042 25.534 104.234 25.342C104.426 25.15 104.696 25.054 105.044 25.054C105.392 25.054 105.662 25.15 105.854 25.342C106.046 25.534 106.142 25.816 106.142 26.188V27.502L105.944 26.962C106.184 26.362 106.556 25.888 107.06 25.54C107.564 25.192 108.164 25.018 108.86 25.018C109.568 25.018 110.15 25.186 110.606 25.522C111.062 25.858 111.38 26.374 111.56 27.07H111.308C111.548 26.434 111.944 25.936 112.496 25.576C113.048 25.204 113.684 25.018 114.404 25.018C115.076 25.018 115.628 25.15 116.06 25.414C116.504 25.678 116.834 26.08 117.05 26.62C117.266 27.148 117.374 27.82 117.374 28.636V32.992C117.374 33.364 117.272 33.652 117.068 33.856C116.876 34.048 116.6 34.144 116.24 34.144C115.88 34.144 115.604 34.048 115.412 33.856C115.22 33.652 115.124 33.364 115.124 32.992V28.726C115.124 28.054 115.01 27.562 114.782 27.25C114.566 26.938 114.194 26.782 113.666 26.782C113.078 26.782 112.616 26.992 112.28 27.412C111.944 27.82 111.776 28.39 111.776 29.122V32.992C111.776 33.364 111.68 33.652 111.488 33.856C111.296 34.048 111.02 34.144 110.66 34.144C110.3 34.144 110.018 34.048 109.814 33.856C109.622 33.652 109.526 33.364 109.526 32.992V28.726C109.526 28.054 109.412 27.562 109.184 27.25C108.968 26.938 108.602 26.782 108.086 26.782C107.498 26.782 107.036 26.992 106.7 27.412C106.364 27.82 106.196 28.39 106.196 29.122V32.992C106.196 33.76 105.818 34.144 105.062 34.144ZM123.709 34.18C122.797 34.18 122.005 33.994 121.333 33.622C120.661 33.25 120.139 32.722 119.767 32.038C119.395 31.342 119.209 30.526 119.209 29.59C119.209 28.882 119.311 28.252 119.515 27.7C119.731 27.136 120.037 26.656 120.433 26.26C120.829 25.852 121.303 25.546 121.855 25.342C122.407 25.126 123.025 25.018 123.709 25.018C124.621 25.018 125.413 25.204 126.085 25.576C126.757 25.948 127.279 26.476 127.651 27.16C128.023 27.844 128.209 28.654 128.209 29.59C128.209 30.298 128.101 30.934 127.885 31.498C127.681 32.062 127.381 32.548 126.985 32.956C126.589 33.352 126.115 33.658 125.563 33.874C125.011 34.078 124.393 34.18 123.709 34.18ZM123.709 32.47C124.153 32.47 124.543 32.362 124.879 32.146C125.215 31.93 125.473 31.612 125.653 31.192C125.845 30.76 125.941 30.226 125.941 29.59C125.941 28.63 125.737 27.916 125.329 27.448C124.921 26.968 124.381 26.728 123.709 26.728C123.265 26.728 122.875 26.836 122.539 27.052C122.203 27.256 121.939 27.574 121.747 28.006C121.567 28.426 121.477 28.954 121.477 29.59C121.477 30.538 121.681 31.258 122.089 31.75C122.497 32.23 123.037 32.47 123.709 32.47ZM134.011 34.18C133.231 34.18 132.577 34.048 132.049 33.784C131.533 33.52 131.149 33.136 130.897 32.632C130.645 32.116 130.519 31.48 130.519 30.724V26.89H129.583C129.295 26.89 129.073 26.818 128.917 26.674C128.761 26.518 128.683 26.308 128.683 26.044C128.683 25.768 128.761 25.558 128.917 25.414C129.073 25.27 129.295 25.198 129.583 25.198H130.519V23.56C130.519 23.188 130.615 22.906 130.807 22.714C131.011 22.522 131.293 22.426 131.653 22.426C132.013 22.426 132.289 22.522 132.481 22.714C132.673 22.906 132.769 23.188 132.769 23.56V25.198H134.677C134.965 25.198 135.187 25.27 135.343 25.414C135.499 25.558 135.577 25.768 135.577 26.044C135.577 26.308 135.499 26.518 135.343 26.674C135.187 26.818 134.965 26.89 134.677 26.89H132.769V30.598C132.769 31.174 132.895 31.606 133.147 31.894C133.399 32.182 133.807 32.326 134.371 32.326C134.575 32.326 134.755 32.308 134.911 32.272C135.067 32.236 135.205 32.212 135.325 32.2C135.469 32.188 135.589 32.236 135.685 32.344C135.781 32.44 135.829 32.644 135.829 32.956C135.829 33.196 135.787 33.412 135.703 33.604C135.631 33.784 135.493 33.91 135.289 33.982C135.133 34.03 134.929 34.072 134.677 34.108C134.425 34.156 134.203 34.18 134.011 34.18ZM138.231 34.126C137.871 34.126 137.595 34.018 137.403 33.802C137.211 33.586 137.115 33.286 137.115 32.902V26.296C137.115 25.9 137.211 25.6 137.403 25.396C137.595 25.18 137.871 25.072 138.231 25.072C138.591 25.072 138.867 25.18 139.059 25.396C139.263 25.6 139.365 25.9 139.365 26.296V32.902C139.365 33.286 139.269 33.586 139.077 33.802C138.885 34.018 138.603 34.126 138.231 34.126ZM138.231 23.398C137.811 23.398 137.481 23.296 137.241 23.092C137.013 22.876 136.899 22.582 136.899 22.21C136.899 21.826 137.013 21.532 137.241 21.328C137.481 21.124 137.811 21.022 138.231 21.022C138.663 21.022 138.993 21.124 139.221 21.328C139.449 21.532 139.563 21.826 139.563 22.21C139.563 22.582 139.449 22.876 139.221 23.092C138.993 23.296 138.663 23.398 138.231 23.398ZM145.717 34.18C144.805 34.18 144.013 33.994 143.341 33.622C142.669 33.25 142.147 32.722 141.775 32.038C141.403 31.342 141.217 30.526 141.217 29.59C141.217 28.882 141.319 28.252 141.523 27.7C141.739 27.136 142.045 26.656 142.441 26.26C142.837 25.852 143.311 25.546 143.863 25.342C144.415 25.126 145.033 25.018 145.717 25.018C146.629 25.018 147.421 25.204 148.093 25.576C148.765 25.948 149.287 26.476 149.659 27.16C150.031 27.844 150.217 28.654 150.217 29.59C150.217 30.298 150.109 30.934 149.893 31.498C149.689 32.062 149.389 32.548 148.993 32.956C148.597 33.352 148.123 33.658 147.571 33.874C147.019 34.078 146.401 34.18 145.717 34.18ZM145.717 32.47C146.161 32.47 146.551 32.362 146.887 32.146C147.223 31.93 147.481 31.612 147.661 31.192C147.853 30.76 147.949 30.226 147.949 29.59C147.949 28.63 147.745 27.916 147.337 27.448C146.929 26.968 146.389 26.728 145.717 26.728C145.273 26.728 144.883 26.836 144.547 27.052C144.211 27.256 143.947 27.574 143.755 28.006C143.575 28.426 143.485 28.954 143.485 29.59C143.485 30.538 143.689 31.258 144.097 31.75C144.505 32.23 145.045 32.47 145.717 32.47ZM153.19 34.144C152.83 34.144 152.554 34.048 152.362 33.856C152.17 33.652 152.074 33.364 152.074 32.992V26.188C152.074 25.816 152.17 25.534 152.362 25.342C152.554 25.15 152.824 25.054 153.172 25.054C153.52 25.054 153.79 25.15 153.982 25.342C154.174 25.534 154.27 25.816 154.27 26.188V27.412L154.072 26.962C154.336 26.326 154.744 25.846 155.296 25.522C155.86 25.186 156.496 25.018 157.204 25.018C157.912 25.018 158.494 25.15 158.95 25.414C159.406 25.678 159.748 26.08 159.976 26.62C160.204 27.148 160.318 27.82 160.318 28.636V32.992C160.318 33.364 160.222 33.652 160.03 33.856C159.838 34.048 159.562 34.144 159.202 34.144C158.842 34.144 158.56 34.048 158.356 33.856C158.164 33.652 158.068 33.364 158.068 32.992V28.744C158.068 28.06 157.936 27.562 157.672 27.25C157.42 26.938 157.024 26.782 156.484 26.782C155.824 26.782 155.296 26.992 154.9 27.412C154.516 27.82 154.324 28.366 154.324 29.05V32.992C154.324 33.76 153.946 34.144 153.19 34.144ZM165.502 34.18C164.866 34.18 164.296 34.06 163.792 33.82C163.3 33.568 162.91 33.232 162.622 32.812C162.346 32.392 162.208 31.918 162.208 31.39C162.208 30.742 162.376 30.232 162.712 29.86C163.048 29.476 163.594 29.2 164.35 29.032C165.106 28.864 166.12 28.78 167.392 28.78H168.292V30.076H167.41C166.666 30.076 166.072 30.112 165.628 30.184C165.184 30.256 164.866 30.382 164.674 30.562C164.494 30.73 164.404 30.97 164.404 31.282C164.404 31.678 164.542 32.002 164.818 32.254C165.094 32.506 165.478 32.632 165.97 32.632C166.366 32.632 166.714 32.542 167.014 32.362C167.326 32.17 167.572 31.912 167.752 31.588C167.932 31.264 168.022 30.892 168.022 30.472V28.402C168.022 27.802 167.89 27.37 167.626 27.106C167.362 26.842 166.918 26.71 166.294 26.71C165.946 26.71 165.568 26.752 165.16 26.836C164.764 26.92 164.344 27.064 163.9 27.268C163.672 27.376 163.468 27.406 163.288 27.358C163.12 27.31 162.988 27.214 162.892 27.07C162.796 26.914 162.748 26.746 162.748 26.566C162.748 26.386 162.796 26.212 162.892 26.044C162.988 25.864 163.15 25.732 163.378 25.648C163.93 25.42 164.458 25.258 164.962 25.162C165.478 25.066 165.946 25.018 166.366 25.018C167.23 25.018 167.938 25.15 168.49 25.414C169.054 25.678 169.474 26.08 169.75 26.62C170.026 27.148 170.164 27.832 170.164 28.672V32.992C170.164 33.364 170.074 33.652 169.894 33.856C169.714 34.048 169.456 34.144 169.12 34.144C168.784 34.144 168.52 34.048 168.328 33.856C168.148 33.652 168.058 33.364 168.058 32.992V32.128H168.202C168.118 32.548 167.95 32.914 167.698 33.226C167.458 33.526 167.152 33.76 166.78 33.928C166.408 34.096 165.982 34.18 165.502 34.18ZM175.453 34.18C174.457 34.18 173.707 33.898 173.203 33.334C172.699 32.758 172.447 31.918 172.447 30.814V22.3C172.447 21.928 172.543 21.646 172.735 21.454C172.927 21.262 173.203 21.166 173.563 21.166C173.923 21.166 174.199 21.262 174.391 21.454C174.595 21.646 174.697 21.928 174.697 22.3V30.706C174.697 31.258 174.811 31.666 175.039 31.93C175.279 32.194 175.615 32.326 176.047 32.326C176.143 32.326 176.233 32.326 176.317 32.326C176.401 32.314 176.485 32.302 176.569 32.29C176.737 32.266 176.851 32.314 176.911 32.434C176.971 32.542 177.001 32.77 177.001 33.118C177.001 33.418 176.941 33.652 176.821 33.82C176.701 33.988 176.503 34.09 176.227 34.126C176.107 34.138 175.981 34.15 175.849 34.162C175.717 34.174 175.585 34.18 175.453 34.18ZM187.51 34.144C187.138 34.144 186.85 34.042 186.646 33.838C186.454 33.622 186.358 33.328 186.358 32.956V23.236H182.848C182.536 23.236 182.29 23.152 182.11 22.984C181.942 22.804 181.858 22.564 181.858 22.264C181.858 21.952 181.942 21.718 182.11 21.562C182.29 21.394 182.536 21.31 182.848 21.31H192.172C192.484 21.31 192.724 21.394 192.892 21.562C193.072 21.718 193.162 21.952 193.162 22.264C193.162 22.564 193.072 22.804 192.892 22.984C192.724 23.152 192.484 23.236 192.172 23.236H188.662V32.956C188.662 33.328 188.566 33.622 188.374 33.838C188.182 34.042 187.894 34.144 187.51 34.144ZM196.87 34.18C195.958 34.18 195.166 33.994 194.494 33.622C193.822 33.25 193.3 32.722 192.928 32.038C192.556 31.342 192.37 30.526 192.37 29.59C192.37 28.882 192.472 28.252 192.676 27.7C192.892 27.136 193.198 26.656 193.594 26.26C193.99 25.852 194.464 25.546 195.016 25.342C195.568 25.126 196.186 25.018 196.87 25.018C197.782 25.018 198.574 25.204 199.246 25.576C199.918 25.948 200.44 26.476 200.812 27.16C201.184 27.844 201.37 28.654 201.37 29.59C201.37 30.298 201.262 30.934 201.046 31.498C200.842 32.062 200.542 32.548 200.146 32.956C199.75 33.352 199.276 33.658 198.724 33.874C198.172 34.078 197.554 34.18 196.87 34.18ZM196.87 32.47C197.314 32.47 197.704 32.362 198.04 32.146C198.376 31.93 198.634 31.612 198.814 31.192C199.006 30.76 199.102 30.226 199.102 29.59C199.102 28.63 198.898 27.916 198.49 27.448C198.082 26.968 197.542 26.728 196.87 26.728C196.426 26.728 196.036 26.836 195.7 27.052C195.364 27.256 195.1 27.574 194.908 28.006C194.728 28.426 194.638 28.954 194.638 29.59C194.638 30.538 194.842 31.258 195.25 31.75C195.658 32.23 196.198 32.47 196.87 32.47ZM206.413 34.18C205.681 34.18 205.075 34.048 204.595 33.784C204.115 33.508 203.755 33.1 203.515 32.56C203.287 32.02 203.173 31.348 203.173 30.544V26.188C203.173 25.804 203.269 25.522 203.461 25.342C203.653 25.15 203.929 25.054 204.289 25.054C204.649 25.054 204.925 25.15 205.117 25.342C205.321 25.522 205.423 25.804 205.423 26.188V30.58C205.423 31.204 205.549 31.666 205.801 31.966C206.053 32.266 206.455 32.416 207.007 32.416C207.607 32.416 208.099 32.212 208.483 31.804C208.867 31.384 209.059 30.832 209.059 30.148V26.188C209.059 25.804 209.155 25.522 209.347 25.342C209.539 25.15 209.815 25.054 210.175 25.054C210.535 25.054 210.811 25.15 211.003 25.342C211.207 25.522 211.309 25.804 211.309 26.188V32.992C211.309 33.76 210.943 34.144 210.211 34.144C209.863 34.144 209.593 34.048 209.401 33.856C209.209 33.652 209.113 33.364 209.113 32.992V31.624L209.365 32.164C209.113 32.812 208.729 33.31 208.213 33.658C207.709 34.006 207.109 34.18 206.413 34.18ZM217.718 34.18C216.794 34.18 215.99 33.994 215.306 33.622C214.622 33.238 214.094 32.698 213.722 32.002C213.35 31.306 213.164 30.49 213.164 29.554C213.164 28.846 213.266 28.216 213.47 27.664C213.686 27.1 213.992 26.626 214.388 26.242C214.784 25.846 215.264 25.546 215.828 25.342C216.392 25.126 217.022 25.018 217.718 25.018C218.114 25.018 218.54 25.072 218.996 25.18C219.464 25.288 219.902 25.468 220.31 25.72C220.502 25.84 220.628 25.984 220.688 26.152C220.748 26.32 220.76 26.494 220.724 26.674C220.688 26.842 220.61 26.992 220.49 27.124C220.382 27.244 220.244 27.322 220.076 27.358C219.908 27.382 219.722 27.34 219.518 27.232C219.254 27.076 218.984 26.962 218.708 26.89C218.432 26.806 218.168 26.764 217.916 26.764C217.52 26.764 217.172 26.83 216.872 26.962C216.572 27.082 216.314 27.262 216.098 27.502C215.894 27.73 215.738 28.018 215.63 28.366C215.522 28.714 215.468 29.116 215.468 29.572C215.468 30.46 215.678 31.162 216.098 31.678C216.53 32.182 217.136 32.434 217.916 32.434C218.168 32.434 218.426 32.398 218.69 32.326C218.966 32.254 219.242 32.14 219.518 31.984C219.722 31.876 219.902 31.84 220.058 31.876C220.226 31.912 220.364 31.996 220.472 32.128C220.58 32.248 220.646 32.398 220.67 32.578C220.694 32.746 220.67 32.914 220.598 33.082C220.538 33.25 220.418 33.388 220.238 33.496C219.842 33.736 219.422 33.91 218.978 34.018C218.534 34.126 218.114 34.18 217.718 34.18ZM223.257 34.144C222.897 34.144 222.621 34.048 222.429 33.856C222.237 33.652 222.141 33.364 222.141 32.992V22.3C222.141 21.928 222.237 21.646 222.429 21.454C222.621 21.262 222.897 21.166 223.257 21.166C223.617 21.166 223.893 21.262 224.085 21.454C224.289 21.646 224.391 21.928 224.391 22.3V26.962H224.139C224.403 26.326 224.811 25.846 225.363 25.522C225.927 25.186 226.563 25.018 227.271 25.018C227.979 25.018 228.561 25.15 229.017 25.414C229.473 25.678 229.815 26.08 230.043 26.62C230.271 27.148 230.385 27.82 230.385 28.636V32.992C230.385 33.364 230.289 33.652 230.097 33.856C229.905 34.048 229.629 34.144 229.269 34.144C228.909 34.144 228.627 34.048 228.423 33.856C228.231 33.652 228.135 33.364 228.135 32.992V28.744C228.135 28.06 228.003 27.562 227.739 27.25C227.487 26.938 227.091 26.782 226.551 26.782C225.891 26.782 225.363 26.992 224.967 27.412C224.583 27.82 224.391 28.366 224.391 29.05V32.992C224.391 33.76 224.013 34.144 223.257 34.144Z" fill="white"/>
<path d="M98.544 60.144C97.3387 60.144 96.32 59.9147 95.488 59.456C94.6667 58.9973 94.0427 58.336 93.616 57.472C93.1893 56.608 92.976 55.5733 92.976 54.368C92.976 53.472 93.0933 52.6667 93.328 51.952C93.5733 51.2373 93.9253 50.6347 94.384 50.144C94.8533 49.6427 95.4187 49.2587 96.08 48.992C96.752 48.7147 97.5093 48.576 98.352 48.576C99.024 48.576 99.6747 48.672 100.304 48.864C100.933 49.0453 101.493 49.3387 101.984 49.744C102.112 49.84 102.192 49.9467 102.224 50.064C102.256 50.1813 102.251 50.2987 102.208 50.416C102.176 50.5333 102.117 50.6347 102.032 50.72C101.957 50.7947 101.856 50.8373 101.728 50.848C101.611 50.8587 101.488 50.8213 101.36 50.736C100.923 50.3947 100.459 50.1493 99.968 50C99.4773 49.84 98.9333 49.76 98.336 49.76C97.4827 49.76 96.7573 49.9413 96.16 50.304C95.5733 50.6667 95.1253 51.1893 94.816 51.872C94.5173 52.5547 94.368 53.3867 94.368 54.368C94.368 55.8613 94.7147 57.0027 95.408 57.792C96.112 58.5813 97.168 58.976 98.576 58.976C99.088 58.976 99.5893 58.928 100.08 58.832C100.571 58.7253 101.035 58.5813 101.472 58.4L101.184 59.152V55.168H98.896C98.704 55.168 98.56 55.12 98.464 55.024C98.368 54.928 98.32 54.8 98.32 54.64C98.32 54.4693 98.368 54.3413 98.464 54.256C98.56 54.1707 98.704 54.128 98.896 54.128H101.76C101.941 54.128 102.08 54.176 102.176 54.272C102.272 54.368 102.32 54.5067 102.32 54.688V58.864C102.32 59.024 102.293 59.1573 102.24 59.264C102.187 59.3707 102.096 59.4507 101.968 59.504C101.52 59.6853 100.981 59.84 100.352 59.968C99.7333 60.0853 99.1307 60.144 98.544 60.144ZM108.329 60.144C107.508 60.144 106.799 59.984 106.201 59.664C105.615 59.3333 105.156 58.8693 104.825 58.272C104.505 57.6747 104.345 56.96 104.345 56.128C104.345 55.3173 104.505 54.6133 104.825 54.016C105.145 53.408 105.583 52.9333 106.137 52.592C106.703 52.2507 107.353 52.08 108.089 52.08C108.612 52.08 109.081 52.1707 109.497 52.352C109.913 52.5227 110.265 52.7733 110.553 53.104C110.852 53.4347 111.076 53.8347 111.225 54.304C111.385 54.7733 111.465 55.3013 111.465 55.888C111.465 56.0587 111.417 56.1867 111.321 56.272C111.225 56.3467 111.087 56.384 110.905 56.384H105.337V55.536H110.601L110.345 55.744C110.345 55.168 110.26 54.6827 110.089 54.288C109.919 53.8827 109.668 53.5733 109.337 53.36C109.017 53.1467 108.612 53.04 108.121 53.04C107.577 53.04 107.113 53.168 106.729 53.424C106.356 53.6693 106.073 54.016 105.881 54.464C105.689 54.9013 105.593 55.4133 105.593 56V56.096C105.593 57.0773 105.828 57.824 106.297 58.336C106.777 58.848 107.455 59.104 108.329 59.104C108.692 59.104 109.049 59.056 109.401 58.96C109.764 58.864 110.116 58.704 110.457 58.48C110.607 58.384 110.74 58.3413 110.857 58.352C110.985 58.352 111.087 58.3893 111.161 58.464C111.236 58.528 111.284 58.6133 111.305 58.72C111.337 58.816 111.327 58.9227 111.273 59.04C111.231 59.1573 111.14 59.2587 111.001 59.344C110.649 59.6 110.233 59.7973 109.753 59.936C109.273 60.0747 108.799 60.144 108.329 60.144ZM116.461 60.144C115.853 60.144 115.341 60.0373 114.925 59.824C114.52 59.6 114.216 59.28 114.013 58.864C113.81 58.4373 113.709 57.92 113.709 57.312V53.232H112.637C112.456 53.232 112.317 53.1893 112.221 53.104C112.125 53.008 112.077 52.88 112.077 52.72C112.077 52.56 112.125 52.4373 112.221 52.352C112.317 52.2667 112.456 52.224 112.637 52.224H113.709V50.384C113.709 50.1707 113.768 50.0107 113.885 49.904C114.002 49.7867 114.162 49.728 114.365 49.728C114.568 49.728 114.722 49.7867 114.829 49.904C114.946 50.0107 115.005 50.1707 115.005 50.384V52.224H117.021C117.202 52.224 117.341 52.2667 117.437 52.352C117.533 52.4373 117.581 52.56 117.581 52.72C117.581 52.88 117.533 53.008 117.437 53.104C117.341 53.1893 117.202 53.232 117.021 53.232H115.005V57.184C115.005 57.792 115.133 58.256 115.389 58.576C115.645 58.8853 116.061 59.04 116.637 59.04C116.84 59.04 117.01 59.0187 117.149 58.976C117.298 58.9333 117.421 58.912 117.517 58.912C117.613 58.9013 117.693 58.9333 117.757 59.008C117.821 59.0827 117.853 59.2107 117.853 59.392C117.853 59.52 117.826 59.6373 117.773 59.744C117.73 59.8507 117.65 59.9253 117.533 59.968C117.405 60.0107 117.234 60.048 117.021 60.08C116.818 60.1227 116.632 60.144 116.461 60.144ZM126.996 60.144C126.292 60.144 125.684 59.9627 125.172 59.6C124.67 59.2373 124.334 58.752 124.164 58.144L124.34 57.968V59.44C124.34 59.6533 124.281 59.8187 124.164 59.936C124.057 60.0533 123.902 60.112 123.7 60.112C123.486 60.112 123.326 60.0533 123.22 59.936C123.113 59.8187 123.06 59.6533 123.06 59.44V49.264C123.06 49.0507 123.113 48.8907 123.22 48.784C123.326 48.6667 123.486 48.608 123.7 48.608C123.902 48.608 124.062 48.6667 124.18 48.784C124.297 48.8907 124.356 49.0507 124.356 49.264V54.032H124.164C124.345 53.4347 124.686 52.96 125.188 52.608C125.689 52.256 126.292 52.08 126.996 52.08C127.7 52.08 128.308 52.2453 128.82 52.576C129.332 52.896 129.726 53.36 130.004 53.968C130.292 54.5653 130.436 55.28 130.436 56.112C130.436 56.9333 130.292 57.648 130.004 58.256C129.726 58.8533 129.326 59.3173 128.804 59.648C128.292 59.9787 127.689 60.144 126.996 60.144ZM126.724 59.104C127.214 59.104 127.636 58.9867 127.988 58.752C128.35 58.5173 128.628 58.176 128.82 57.728C129.022 57.28 129.124 56.7413 129.124 56.112C129.124 55.1413 128.905 54.4 128.468 53.888C128.041 53.376 127.46 53.12 126.724 53.12C126.244 53.12 125.822 53.2373 125.46 53.472C125.097 53.696 124.814 54.032 124.612 54.48C124.42 54.9173 124.324 55.4613 124.324 56.112C124.324 57.072 124.542 57.8133 124.98 58.336C125.417 58.848 125.998 59.104 126.724 59.104ZM134.836 60.144C134.303 60.144 133.823 60.0427 133.396 59.84C132.98 59.6267 132.649 59.3387 132.404 58.976C132.159 58.6133 132.036 58.208 132.036 57.76C132.036 57.184 132.18 56.7307 132.468 56.4C132.767 56.0693 133.252 55.8347 133.924 55.696C134.607 55.5573 135.535 55.488 136.708 55.488H137.428V56.336H136.724C135.86 56.336 135.177 56.3787 134.676 56.464C134.185 56.5387 133.839 56.672 133.636 56.864C133.444 57.056 133.348 57.328 133.348 57.68C133.348 58.1173 133.497 58.4747 133.796 58.752C134.105 59.0293 134.521 59.168 135.044 59.168C135.471 59.168 135.844 59.0667 136.164 58.864C136.495 58.6613 136.751 58.384 136.932 58.032C137.124 57.68 137.22 57.2747 137.22 56.816V54.992C137.22 54.3307 137.087 53.856 136.82 53.568C136.553 53.2693 136.116 53.12 135.508 53.12C135.135 53.12 134.761 53.168 134.388 53.264C134.015 53.36 133.62 53.5147 133.204 53.728C133.055 53.8027 132.927 53.8293 132.82 53.808C132.713 53.776 132.628 53.7173 132.564 53.632C132.5 53.5467 132.463 53.4507 132.452 53.344C132.441 53.2267 132.463 53.1147 132.516 53.008C132.58 52.9013 132.676 52.816 132.804 52.752C133.273 52.5173 133.737 52.3467 134.196 52.24C134.655 52.1333 135.092 52.08 135.508 52.08C136.18 52.08 136.735 52.192 137.172 52.416C137.609 52.6293 137.935 52.96 138.148 53.408C138.361 53.8453 138.468 54.4107 138.468 55.104V59.44C138.468 59.6533 138.415 59.8187 138.308 59.936C138.212 60.0533 138.068 60.112 137.876 60.112C137.673 60.112 137.519 60.0533 137.412 59.936C137.305 59.8187 137.252 59.6533 137.252 59.44V58.192H137.396C137.311 58.5973 137.145 58.944 136.9 59.232C136.665 59.52 136.372 59.744 136.02 59.904C135.668 60.064 135.273 60.144 134.836 60.144ZM144.168 60.144C143.39 60.144 142.718 59.9733 142.152 59.632C141.587 59.2907 141.15 58.816 140.84 58.208C140.542 57.5893 140.392 56.8747 140.392 56.064C140.392 55.4453 140.478 54.8907 140.648 54.4C140.819 53.9093 141.07 53.4933 141.4 53.152C141.731 52.8 142.126 52.5333 142.584 52.352C143.054 52.1707 143.582 52.08 144.168 52.08C144.552 52.08 144.952 52.1387 145.368 52.256C145.784 52.3733 146.163 52.576 146.504 52.864C146.611 52.9387 146.68 53.0293 146.712 53.136C146.744 53.2427 146.744 53.3493 146.712 53.456C146.68 53.552 146.627 53.6373 146.552 53.712C146.478 53.776 146.382 53.8133 146.264 53.824C146.158 53.8347 146.046 53.7973 145.928 53.712C145.651 53.4987 145.368 53.3493 145.08 53.264C144.792 53.1787 144.515 53.136 144.248 53.136C143.832 53.136 143.47 53.2053 143.16 53.344C142.851 53.472 142.59 53.6587 142.376 53.904C142.163 54.1493 141.998 54.4533 141.88 54.816C141.774 55.1787 141.72 55.6 141.72 56.08C141.72 57.008 141.939 57.744 142.376 58.288C142.814 58.8213 143.438 59.088 144.248 59.088C144.515 59.088 144.787 59.0453 145.064 58.96C145.352 58.8747 145.64 58.7253 145.928 58.512C146.046 58.4267 146.158 58.3893 146.264 58.4C146.371 58.4107 146.462 58.4533 146.536 58.528C146.611 58.592 146.659 58.6773 146.68 58.784C146.712 58.8907 146.712 58.9973 146.68 59.104C146.648 59.2 146.579 59.2853 146.472 59.36C146.131 59.6373 145.758 59.84 145.352 59.968C144.947 60.0853 144.552 60.144 144.168 60.144ZM148.919 60.112C148.705 60.112 148.545 60.0533 148.439 59.936C148.332 59.8187 148.279 59.6533 148.279 59.44V49.264C148.279 49.0507 148.332 48.8907 148.439 48.784C148.545 48.6667 148.705 48.608 148.919 48.608C149.121 48.608 149.281 48.6667 149.399 48.784C149.516 48.8907 149.575 49.0507 149.575 49.264V55.68H149.607L152.887 52.544C153.036 52.4053 153.164 52.2987 153.271 52.224C153.388 52.1493 153.543 52.112 153.735 52.112C153.905 52.112 154.039 52.16 154.135 52.256C154.231 52.3413 154.273 52.4533 154.263 52.592C154.263 52.72 154.199 52.8587 154.071 53.008L150.583 56.32V55.616L154.375 59.184C154.524 59.3333 154.599 59.4773 154.599 59.616C154.599 59.7547 154.545 59.872 154.439 59.968C154.343 60.064 154.215 60.112 154.055 60.112C153.863 60.112 153.708 60.0747 153.591 60C153.473 59.9147 153.329 59.792 153.159 59.632L149.607 56.352H149.575V59.44C149.575 59.888 149.356 60.112 148.919 60.112ZM163.524 60.144C162.916 60.144 162.404 60.0373 161.988 59.824C161.582 59.6 161.278 59.28 161.076 58.864C160.873 58.4373 160.772 57.92 160.772 57.312V53.232H159.7C159.518 53.232 159.38 53.1893 159.284 53.104C159.188 53.008 159.139 52.88 159.139 52.72C159.139 52.56 159.188 52.4373 159.284 52.352C159.38 52.2667 159.518 52.224 159.7 52.224H160.772V50.384C160.772 50.1707 160.83 50.0107 160.948 49.904C161.065 49.7867 161.225 49.728 161.428 49.728C161.63 49.728 161.785 49.7867 161.892 49.904C162.009 50.0107 162.068 50.1707 162.068 50.384V52.224H164.084C164.265 52.224 164.404 52.2667 164.5 52.352C164.596 52.4373 164.644 52.56 164.644 52.72C164.644 52.88 164.596 53.008 164.5 53.104C164.404 53.1893 164.265 53.232 164.084 53.232H162.068V57.184C162.068 57.792 162.196 58.256 162.452 58.576C162.708 58.8853 163.124 59.04 163.7 59.04C163.902 59.04 164.073 59.0187 164.212 58.976C164.361 58.9333 164.484 58.912 164.58 58.912C164.676 58.9013 164.756 58.9333 164.82 59.008C164.884 59.0827 164.916 59.2107 164.916 59.392C164.916 59.52 164.889 59.6373 164.836 59.744C164.793 59.8507 164.713 59.9253 164.596 59.968C164.468 60.0107 164.297 60.048 164.084 60.08C163.881 60.1227 163.694 60.144 163.524 60.144ZM169.151 60.144C168.394 60.144 167.738 59.9787 167.183 59.648C166.628 59.3173 166.196 58.8533 165.887 58.256C165.588 57.648 165.439 56.9333 165.439 56.112C165.439 55.4933 165.524 54.9387 165.695 54.448C165.866 53.9467 166.116 53.52 166.447 53.168C166.778 52.816 167.167 52.5493 167.615 52.368C168.074 52.176 168.586 52.08 169.151 52.08C169.908 52.08 170.564 52.2453 171.119 52.576C171.674 52.9067 172.1 53.376 172.399 53.984C172.708 54.5813 172.863 55.2907 172.863 56.112C172.863 56.7307 172.778 57.2853 172.607 57.776C172.436 58.2667 172.186 58.6933 171.855 59.056C171.524 59.408 171.13 59.68 170.671 59.872C170.223 60.0533 169.716 60.144 169.151 60.144ZM169.151 59.104C169.631 59.104 170.052 58.9867 170.415 58.752C170.778 58.5173 171.055 58.176 171.247 57.728C171.45 57.28 171.551 56.7413 171.551 56.112C171.551 55.1413 171.332 54.4 170.895 53.888C170.468 53.376 169.887 53.12 169.151 53.12C168.66 53.12 168.234 53.2373 167.871 53.472C167.519 53.696 167.242 54.032 167.039 54.48C166.847 54.9173 166.751 55.4613 166.751 56.112C166.751 57.072 166.97 57.8133 167.407 58.336C167.844 58.848 168.426 59.104 169.151 59.104ZM179.575 60.112C179.361 60.112 179.201 60.0533 179.095 59.936C178.988 59.8187 178.935 59.6533 178.935 59.44V49.264C178.935 49.0507 178.988 48.8907 179.095 48.784C179.201 48.6667 179.361 48.608 179.575 48.608C179.777 48.608 179.937 48.6667 180.055 48.784C180.172 48.8907 180.231 49.0507 180.231 49.264V53.952H180.023C180.247 53.3333 180.609 52.8693 181.111 52.56C181.623 52.24 182.209 52.08 182.871 52.08C183.489 52.08 184.001 52.192 184.407 52.416C184.823 52.64 185.132 52.9813 185.335 53.44C185.537 53.888 185.639 54.4587 185.639 55.152V59.44C185.639 59.6533 185.58 59.8187 185.463 59.936C185.356 60.0533 185.201 60.112 184.999 60.112C184.785 60.112 184.62 60.0533 184.503 59.936C184.396 59.8187 184.343 59.6533 184.343 59.44V55.232C184.343 54.5067 184.199 53.9787 183.911 53.648C183.633 53.3067 183.185 53.136 182.567 53.136C181.852 53.136 181.281 53.36 180.855 53.808C180.439 54.2453 180.231 54.832 180.231 55.568V59.44C180.231 59.888 180.012 60.112 179.575 60.112ZM190.477 60.144C189.943 60.144 189.463 60.0427 189.037 59.84C188.621 59.6267 188.29 59.3387 188.045 58.976C187.799 58.6133 187.677 58.208 187.677 57.76C187.677 57.184 187.821 56.7307 188.109 56.4C188.407 56.0693 188.893 55.8347 189.565 55.696C190.247 55.5573 191.175 55.488 192.349 55.488H193.069V56.336H192.365C191.501 56.336 190.818 56.3787 190.317 56.464C189.826 56.5387 189.479 56.672 189.277 56.864C189.085 57.056 188.989 57.328 188.989 57.68C188.989 58.1173 189.138 58.4747 189.437 58.752C189.746 59.0293 190.162 59.168 190.685 59.168C191.111 59.168 191.485 59.0667 191.805 58.864C192.135 58.6613 192.391 58.384 192.573 58.032C192.765 57.68 192.861 57.2747 192.861 56.816V54.992C192.861 54.3307 192.727 53.856 192.461 53.568C192.194 53.2693 191.757 53.12 191.149 53.12C190.775 53.12 190.402 53.168 190.029 53.264C189.655 53.36 189.261 53.5147 188.845 53.728C188.695 53.8027 188.567 53.8293 188.461 53.808C188.354 53.776 188.269 53.7173 188.205 53.632C188.141 53.5467 188.103 53.4507 188.093 53.344C188.082 53.2267 188.103 53.1147 188.157 53.008C188.221 52.9013 188.317 52.816 188.445 52.752C188.914 52.5173 189.378 52.3467 189.837 52.24C190.295 52.1333 190.733 52.08 191.149 52.08C191.821 52.08 192.375 52.192 192.813 52.416C193.25 52.6293 193.575 52.96 193.789 53.408C194.002 53.8453 194.109 54.4107 194.109 55.104V59.44C194.109 59.6533 194.055 59.8187 193.949 59.936C193.853 60.0533 193.709 60.112 193.517 60.112C193.314 60.112 193.159 60.0533 193.053 59.936C192.946 59.8187 192.893 59.6533 192.893 59.44V58.192H193.037C192.951 58.5973 192.786 58.944 192.541 59.232C192.306 59.52 192.013 59.744 191.661 59.904C191.309 60.064 190.914 60.144 190.477 60.144ZM197.153 62.992C196.94 62.992 196.78 62.9333 196.673 62.816C196.566 62.7093 196.513 62.5493 196.513 62.336V52.768C196.513 52.5547 196.566 52.3947 196.673 52.288C196.78 52.1707 196.934 52.112 197.137 52.112C197.35 52.112 197.51 52.1707 197.617 52.288C197.734 52.3947 197.793 52.5547 197.793 52.768V54.288L197.617 54.064C197.788 53.456 198.124 52.976 198.625 52.624C199.137 52.2613 199.745 52.08 200.449 52.08C201.142 52.08 201.745 52.2453 202.257 52.576C202.78 52.896 203.18 53.36 203.457 53.968C203.745 54.5653 203.889 55.28 203.889 56.112C203.889 56.9333 203.745 57.648 203.457 58.256C203.18 58.8533 202.785 59.3173 202.273 59.648C201.761 59.9787 201.153 60.144 200.449 60.144C199.745 60.144 199.142 59.968 198.641 59.616C198.14 59.2533 197.798 58.7733 197.617 58.176H197.809V62.336C197.809 62.5493 197.75 62.7093 197.633 62.816C197.516 62.9333 197.356 62.992 197.153 62.992ZM200.177 59.104C200.668 59.104 201.089 58.9867 201.441 58.752C201.804 58.5173 202.081 58.176 202.273 57.728C202.476 57.28 202.577 56.7413 202.577 56.112C202.577 55.1413 202.358 54.4 201.921 53.888C201.494 53.376 200.913 53.12 200.177 53.12C199.697 53.12 199.276 53.2373 198.913 53.472C198.55 53.696 198.268 54.032 198.065 54.48C197.873 54.9173 197.777 55.4613 197.777 56.112C197.777 57.072 197.996 57.8133 198.433 58.336C198.87 58.848 199.452 59.104 200.177 59.104ZM206.481 62.992C206.268 62.992 206.108 62.9333 206.001 62.816C205.894 62.7093 205.841 62.5493 205.841 62.336V52.768C205.841 52.5547 205.894 52.3947 206.001 52.288C206.108 52.1707 206.262 52.112 206.465 52.112C206.678 52.112 206.838 52.1707 206.945 52.288C207.062 52.3947 207.121 52.5547 207.121 52.768V54.288L206.945 54.064C207.116 53.456 207.452 52.976 207.953 52.624C208.465 52.2613 209.073 52.08 209.777 52.08C210.47 52.08 211.073 52.2453 211.585 52.576C212.108 52.896 212.508 53.36 212.785 53.968C213.073 54.5653 213.217 55.28 213.217 56.112C213.217 56.9333 213.073 57.648 212.785 58.256C212.508 58.8533 212.113 59.3173 211.601 59.648C211.089 59.9787 210.481 60.144 209.777 60.144C209.073 60.144 208.47 59.968 207.969 59.616C207.468 59.2533 207.126 58.7733 206.945 58.176H207.137V62.336C207.137 62.5493 207.078 62.7093 206.961 62.816C206.844 62.9333 206.684 62.992 206.481 62.992ZM209.505 59.104C209.996 59.104 210.417 58.9867 210.769 58.752C211.132 58.5173 211.409 58.176 211.601 57.728C211.804 57.28 211.905 56.7413 211.905 56.112C211.905 55.1413 211.686 54.4 211.249 53.888C210.822 53.376 210.241 53.12 209.505 53.12C209.025 53.12 208.604 53.2373 208.241 53.472C207.878 53.696 207.596 54.032 207.393 54.48C207.201 54.9173 207.105 55.4613 207.105 56.112C207.105 57.072 207.324 57.8133 207.761 58.336C208.198 58.848 208.78 59.104 209.505 59.104ZM215.809 60.08C215.596 60.08 215.436 60.0213 215.329 59.904C215.222 59.776 215.169 59.6 215.169 59.376V52.832C215.169 52.608 215.222 52.4373 215.329 52.32C215.436 52.2027 215.596 52.144 215.809 52.144C216.012 52.144 216.172 52.2027 216.289 52.32C216.406 52.4373 216.465 52.608 216.465 52.832V59.376C216.465 59.6 216.406 59.776 216.289 59.904C216.182 60.0213 216.022 60.08 215.809 60.08ZM215.809 50.352C215.542 50.352 215.334 50.2827 215.185 50.144C215.036 49.9947 214.961 49.7973 214.961 49.552C214.961 49.296 215.036 49.104 215.185 48.976C215.334 48.8373 215.542 48.768 215.809 48.768C216.086 48.768 216.294 48.8373 216.433 48.976C216.582 49.104 216.657 49.296 216.657 49.552C216.657 49.7973 216.582 49.9947 216.433 50.144C216.294 50.2827 216.086 50.352 215.809 50.352ZM219.528 60.112C219.315 60.112 219.155 60.0533 219.048 59.936C218.941 59.8187 218.888 59.6533 218.888 59.44V52.768C218.888 52.5547 218.941 52.3947 219.048 52.288C219.155 52.1707 219.309 52.112 219.512 52.112C219.715 52.112 219.869 52.1707 219.976 52.288C220.093 52.3947 220.152 52.5547 220.152 52.768V54.144L219.976 53.952C220.2 53.3333 220.563 52.8693 221.064 52.56C221.576 52.24 222.163 52.08 222.824 52.08C223.443 52.08 223.955 52.192 224.36 52.416C224.776 52.64 225.085 52.9813 225.288 53.44C225.491 53.888 225.592 54.4587 225.592 55.152V59.44C225.592 59.6533 225.533 59.8187 225.416 59.936C225.309 60.0533 225.155 60.112 224.952 60.112C224.739 60.112 224.573 60.0533 224.456 59.936C224.349 59.8187 224.296 59.6533 224.296 59.44V55.232C224.296 54.5067 224.152 53.9787 223.864 53.648C223.587 53.3067 223.139 53.136 222.52 53.136C221.805 53.136 221.235 53.36 220.808 53.808C220.392 54.2453 220.184 54.832 220.184 55.568V59.44C220.184 59.888 219.965 60.112 219.528 60.112ZM231.486 60.144C230.664 60.144 229.955 59.984 229.358 59.664C228.771 59.3333 228.312 58.8693 227.982 58.272C227.662 57.6747 227.502 56.96 227.502 56.128C227.502 55.3173 227.662 54.6133 227.982 54.016C228.302 53.408 228.739 52.9333 229.294 52.592C229.859 52.2507 230.51 52.08 231.246 52.08C231.768 52.08 232.238 52.1707 232.654 52.352C233.07 52.5227 233.422 52.7733 233.71 53.104C234.008 53.4347 234.232 53.8347 234.382 54.304C234.542 54.7733 234.622 55.3013 234.622 55.888C234.622 56.0587 234.574 56.1867 234.478 56.272C234.382 56.3467 234.243 56.384 234.062 56.384H228.494V55.536H233.758L233.502 55.744C233.502 55.168 233.416 54.6827 233.246 54.288C233.075 53.8827 232.824 53.5733 232.494 53.36C232.174 53.1467 231.768 53.04 231.278 53.04C230.734 53.04 230.27 53.168 229.886 53.424C229.512 53.6693 229.23 54.016 229.038 54.464C228.846 54.9013 228.75 55.4133 228.75 56V56.096C228.75 57.0773 228.984 57.824 229.454 58.336C229.934 58.848 230.611 59.104 231.486 59.104C231.848 59.104 232.206 59.056 232.558 58.96C232.92 58.864 233.272 58.704 233.614 58.48C233.763 58.384 233.896 58.3413 234.014 58.352C234.142 58.352 234.243 58.3893 234.318 58.464C234.392 58.528 234.44 58.6133 234.462 58.72C234.494 58.816 234.483 58.9227 234.43 59.04C234.387 59.1573 234.296 59.2587 234.158 59.344C233.806 59.6 233.39 59.7973 232.91 59.936C232.43 60.0747 231.955 60.144 231.486 60.144ZM239.121 60.144C238.641 60.144 238.156 60.0853 237.665 59.968C237.185 59.8507 236.737 59.648 236.321 59.36C236.215 59.2853 236.14 59.2 236.097 59.104C236.055 58.9973 236.039 58.896 236.049 58.8C236.071 58.6933 236.113 58.6027 236.177 58.528C236.252 58.4533 236.337 58.4107 236.433 58.4C236.54 58.3787 236.657 58.4 236.785 58.464C237.201 58.72 237.601 58.9013 237.985 59.008C238.38 59.104 238.769 59.152 239.153 59.152C239.761 59.152 240.22 59.04 240.529 58.816C240.839 58.592 240.993 58.288 240.993 57.904C240.993 57.6053 240.892 57.3707 240.689 57.2C240.487 57.0187 240.167 56.88 239.729 56.784L238.273 56.464C237.601 56.3253 237.1 56.0853 236.769 55.744C236.449 55.4027 236.289 54.96 236.289 54.416C236.289 53.936 236.412 53.5253 236.657 53.184C236.913 52.832 237.271 52.56 237.729 52.368C238.188 52.176 238.721 52.08 239.329 52.08C239.799 52.08 240.241 52.144 240.657 52.272C241.084 52.3893 241.468 52.5813 241.809 52.848C241.916 52.9227 241.985 53.0133 242.017 53.12C242.06 53.216 242.065 53.3173 242.033 53.424C242.012 53.52 241.964 53.6053 241.889 53.68C241.815 53.744 241.724 53.7813 241.617 53.792C241.511 53.8027 241.399 53.7707 241.281 53.696C240.961 53.4827 240.636 53.328 240.305 53.232C239.975 53.1253 239.649 53.072 239.329 53.072C238.732 53.072 238.279 53.1893 237.969 53.424C237.66 53.6587 237.505 53.968 237.505 54.352C237.505 54.6507 237.601 54.896 237.793 55.088C237.985 55.28 238.284 55.4187 238.689 55.504L240.145 55.808C240.839 55.9573 241.356 56.1973 241.697 56.528C242.049 56.848 242.225 57.2853 242.225 57.84C242.225 58.544 241.943 59.104 241.377 59.52C240.812 59.936 240.06 60.144 239.121 60.144ZM246.824 60.144C246.344 60.144 245.859 60.0853 245.368 59.968C244.888 59.8507 244.44 59.648 244.024 59.36C243.918 59.2853 243.843 59.2 243.8 59.104C243.758 58.9973 243.742 58.896 243.752 58.8C243.774 58.6933 243.816 58.6027 243.88 58.528C243.955 58.4533 244.04 58.4107 244.136 58.4C244.243 58.3787 244.36 58.4 244.488 58.464C244.904 58.72 245.304 58.9013 245.688 59.008C246.083 59.104 246.472 59.152 246.856 59.152C247.464 59.152 247.923 59.04 248.232 58.816C248.542 58.592 248.696 58.288 248.696 57.904C248.696 57.6053 248.595 57.3707 248.392 57.2C248.19 57.0187 247.87 56.88 247.432 56.784L245.976 56.464C245.304 56.3253 244.803 56.0853 244.472 55.744C244.152 55.4027 243.992 54.96 243.992 54.416C243.992 53.936 244.115 53.5253 244.36 53.184C244.616 52.832 244.974 52.56 245.432 52.368C245.891 52.176 246.424 52.08 247.032 52.08C247.502 52.08 247.944 52.144 248.36 52.272C248.787 52.3893 249.171 52.5813 249.512 52.848C249.619 52.9227 249.688 53.0133 249.72 53.12C249.763 53.216 249.768 53.3173 249.736 53.424C249.715 53.52 249.667 53.6053 249.592 53.68C249.518 53.744 249.427 53.7813 249.32 53.792C249.214 53.8027 249.102 53.7707 248.984 53.696C248.664 53.4827 248.339 53.328 248.008 53.232C247.678 53.1253 247.352 53.072 247.032 53.072C246.435 53.072 245.982 53.1893 245.672 53.424C245.363 53.6587 245.208 53.968 245.208 54.352C245.208 54.6507 245.304 54.896 245.496 55.088C245.688 55.28 245.987 55.4187 246.392 55.504L247.848 55.808C248.542 55.9573 249.059 56.1973 249.4 56.528C249.752 56.848 249.928 57.2853 249.928 57.84C249.928 58.544 249.646 59.104 249.08 59.52C248.515 59.936 247.763 60.144 246.824 60.144Z" fill="#CFCFCF"/>
</svg>
