<svg width="18" height="15" viewBox="0 0 18 15" fill="none" xmlns="http://www.w3.org/2000/svg">
<path d="M9 0C13.9688 0 18 4.03125 18 9C18 10.6562 17.5312 12.2188 16.7812 13.5312C16.5938 13.8438 16.25 14.0312 15.9062 14.0312H2.0625C1.71875 14.0312 1.375 13.8438 1.21875 13.5312C0.4375 12.2188 0 10.6562 0 9C0 4.03125 4.03125 0 9 0ZM9 2C8.4375 2 8 2.46875 8 3C8 3.5625 8.4375 4 9 4C9.53125 4 10 3.5625 10 3C10 2.46875 9.53125 2 9 2ZM3 11C3.53125 11 4 10.5625 4 10C4 9.46875 3.53125 9 3 9C2.4375 9 2 9.46875 2 10C2 10.5625 2.4375 11 3 11ZM4.5 6C5.03125 6 5.5 5.5625 5.5 5C5.5 4.46875 5.03125 4 4.5 4C3.9375 4 3.5 4.46875 3.5 5C3.5 5.5625 3.9375 6 4.5 6ZM10.7188 12C10.875 11.7188 11 11.375 11 11C11 10.625 10.875 10.2812 10.6875 10L14.0938 5.46875C14.3438 5.125 14.25 4.65625 13.9375 4.40625C13.5938 4.15625 13.125 4.21875 12.875 4.5625L9.5 9.09375C9.34375 9.03125 9.15625 9 9 9C7.875 9 7 9.90625 7 11C7 11.375 7.09375 11.7188 7.25 12H10.7188ZM15 11C15.5312 11 16 10.5625 16 10C16 9.46875 15.5312 9 15 9C14.4375 9 14 9.46875 14 10C14 10.5625 14.4375 11 15 11Z" fill="#CFCFCF"/>
</svg>
