<svg width="450" height="526" viewBox="0 0 450 526" fill="none" xmlns="http://www.w3.org/2000/svg">
<path d="M450 524.5C450 525.308 349.255 526 225.022 526C100.788 526 0 525.308 0 524.5C0 523.692 100.73 523 225.022 523C349.313 523 450 523.75 450 524.5Z" fill="#434242"/>
<path d="M341.642 364.658C324.624 347.992 324.427 322.291 328.933 299.964C329.682 296.244 329.932 292.211 332.262 289.229C334.592 286.248 339.133 284.686 342.224 286.816C344.786 288.589 345.455 292.033 346.566 294.973C348.05 298.89 350.612 302.308 353.956 304.83C356.129 306.474 358.959 307.715 361.532 306.812C365.071 305.57 366.187 301.181 366.787 297.437C367.947 290.48 369.065 283.524 370.14 276.57C370.537 272.806 371.54 269.131 373.109 265.686C374.859 262.339 377.987 259.49 381.682 259.081C385.377 258.673 389.434 261.464 389.625 265.238C389.505 266.803 389.284 268.358 388.963 269.894C388.803 271.47 389.241 273.298 390.621 274.015C392.001 274.733 393.703 273.902 395.008 272.992C399.472 269.892 402.903 265.454 406.137 261.047C409.372 256.64 412.579 252.088 416.754 248.568C420.929 245.049 426.297 242.6 431.748 243.189C437.198 243.778 442.268 248.032 442.741 253.493C443.214 258.954 439.267 263.793 435.278 267.498C429.277 272.983 422.517 277.574 415.205 281.128C413.812 281.612 412.612 282.531 411.782 283.748C410.555 286.106 412.496 288.993 414.821 290.188C417.447 291.575 420.512 291.791 423.384 292.629C426.256 293.467 429.16 295.259 429.812 298.187C430.697 302.256 426.84 305.713 423.273 307.809C416.116 311.997 408.293 314.927 400.146 316.471C397.236 317.01 394.209 317.415 391.669 318.965C389.13 320.515 387.248 323.648 388.144 326.501C389.039 329.355 392.328 330.762 395.298 330.706C398.267 330.651 401.081 329.531 403.996 328.954C409.443 327.876 415.993 329.328 418.483 334.293C419.229 335.984 419.573 337.826 419.487 339.672C419.401 341.519 418.889 343.321 417.989 344.936C416.171 348.146 413.728 350.958 410.804 353.207C401.01 361.601 389.164 367.244 376.475 369.56C363.907 371.692 352.71 370.977 341.625 364.681" fill="#DC2C1D"/>
<path d="M438.116 247.417C438.116 247.417 437.983 247.523 437.696 247.706L436.422 248.506C435.304 249.216 433.658 250.249 431.569 251.63C425.65 255.534 420.033 259.879 414.767 264.627C411.41 267.617 407.877 271.051 404.101 274.791C400.324 278.531 396.392 282.591 392.437 286.941C388.23 291.523 384.275 296.33 380.59 301.342C378.667 303.956 376.898 306.723 375.082 309.547L369.667 318.191C362.621 329.04 356.186 340.275 350.392 351.843C345.7 361.315 341.905 371.206 339.056 381.386C337.164 388.261 335.871 395.287 335.194 402.386C334.977 404.912 334.846 406.851 334.804 408.177C334.775 408.813 334.742 409.32 334.731 409.69L334.646 410.201C334.619 410.03 334.61 409.857 334.617 409.684C334.615 409.312 334.621 408.813 334.625 408.173C334.609 406.889 334.701 404.879 334.892 402.348C335.464 395.219 336.685 388.156 338.541 381.249C341.327 371.013 345.085 361.067 349.763 351.546C355.53 339.939 361.958 328.672 369.015 317.8L374.523 309.21C376.337 306.399 378.123 303.609 380.06 300.984C383.767 295.96 387.749 291.144 391.988 286.559C396.012 282.104 399.981 278.128 403.714 274.419C407.447 270.71 411.034 267.259 414.376 264.28C419.684 259.553 425.359 255.255 431.347 251.426C433.469 250.076 435.148 249.075 436.285 248.406L437.6 247.664C437.763 247.564 437.936 247.481 438.116 247.417Z" fill="white"/>
<path d="M380.227 300.986C380.137 300.443 380.105 299.892 380.13 299.343C380.103 298.275 380.122 296.778 380.176 294.84C380.264 291.01 380.571 285.794 380.931 280.024C381.292 274.253 381.488 269.006 381.557 265.212C381.578 263.319 381.576 261.793 381.574 260.729C381.526 260.177 381.546 259.621 381.633 259.073C381.764 259.609 381.832 260.157 381.834 260.709C381.938 261.777 382.004 263.3 382.043 265.216C382.13 269.075 381.979 274.278 381.617 280.061C381.254 285.844 380.921 290.914 380.661 294.856C380.556 296.633 380.471 298.144 380.398 299.349C380.406 299.9 380.348 300.449 380.227 300.986Z" fill="white"/>
<path d="M429.695 300.039C429.066 300.07 428.436 300.042 427.813 299.955C426.547 299.86 424.752 299.714 422.516 299.597C418.048 299.339 411.868 299.205 405.04 299.347C398.211 299.489 392.029 299.906 387.572 300.277C385.348 300.47 383.545 300.682 382.354 300.829C381.712 300.943 381.06 300.989 380.409 300.966C381.033 300.772 381.674 300.635 382.323 300.555C383.563 300.339 385.355 300.048 387.576 299.791C392.036 299.253 398.23 298.762 405.088 298.599C410.896 298.462 416.708 298.619 422.501 299.069C424.739 299.251 426.535 299.473 427.786 299.656C428.433 299.72 429.073 299.848 429.695 300.039Z" fill="white"/>
<path d="M350.519 350.774C350.416 350.572 350.34 350.357 350.293 350.134L349.759 348.264C349.3 346.637 348.712 344.245 348.021 341.323C346.617 335.451 344.944 327.278 343.225 318.225C341.506 309.173 339.894 301.011 338.626 295.097C338.003 292.225 337.486 289.87 337.099 288.114L336.699 286.215C336.636 285.993 336.606 285.764 336.607 285.533C336.71 285.736 336.786 285.951 336.834 286.173L337.368 288.044C337.814 289.669 338.414 292.063 339.106 294.984C340.509 300.857 342.183 309.03 343.902 318.082C345.621 327.134 347.232 335.297 348.501 341.211C349.124 344.083 349.641 346.437 350.015 348.191C350.183 348.95 350.33 349.526 350.428 350.093C350.49 350.315 350.521 350.544 350.519 350.774Z" fill="#263238"/>
<path d="M417.631 340.865C417.412 340.947 417.184 340.999 416.951 341.021L415.002 341.337L407.814 342.406C401.742 343.315 393.343 344.656 384.124 346.142C374.906 347.628 366.477 348.913 360.389 349.692C357.349 350.094 354.88 350.374 353.172 350.551L351.208 350.723C350.977 350.756 350.744 350.764 350.512 350.748C350.731 350.666 350.959 350.614 351.191 350.592L353.141 350.276L360.329 349.207C366.401 348.298 374.8 346.957 384.018 345.471C393.237 343.985 401.653 342.698 407.742 341.919C410.794 341.519 413.25 341.237 414.971 341.062L416.935 340.89C417.165 340.857 417.399 340.849 417.631 340.865Z" fill="white"/>
<path d="M380.227 26.4941L373.718 28.8199L370.924 20.3131C365.792 4.62691 349.436 -3.70285 334.407 1.59331C319.378 6.88947 311.377 24.0925 316.509 39.7788L319.302 48.2855L312.768 50.6239C310.276 51.5904 308.252 53.48 307.118 55.9C305.983 58.3199 305.824 61.084 306.675 63.6178L324.788 118.968C325.164 120.223 325.788 121.389 326.624 122.397C327.459 123.405 328.489 124.235 329.652 124.838C330.814 125.44 332.086 125.803 333.392 125.904C334.697 126.005 336.01 125.843 337.251 125.427L404.711 101.298C407.236 100.333 409.288 98.4264 410.436 95.9795C411.584 93.5325 411.738 90.7357 410.867 88.1773L392.741 32.8268C392.355 31.576 391.721 30.4157 390.877 29.4152C390.033 28.4147 388.997 27.5945 387.829 27.0034C386.661 26.4124 385.386 26.0627 384.08 25.9752C382.774 25.8877 381.464 26.0642 380.227 26.4941ZM328.808 35.3421C327.424 31.2635 327.672 26.8076 329.501 22.908C331.329 19.0084 334.596 15.9677 338.616 14.4229C340.602 13.7437 342.703 13.4713 344.796 13.622C346.889 13.7728 348.93 14.3435 350.797 15.3002C352.665 16.2569 354.32 17.58 355.665 19.1905C357.01 20.801 358.017 22.6659 358.626 24.674L361.406 33.1807L331.589 43.8488L328.808 35.3421ZM366.728 84.4612L371.354 98.5927C371.439 98.876 371.412 99.1812 371.277 99.4449C371.143 99.7085 370.913 99.9103 370.634 100.008L364.149 102.321C363.891 102.393 363.615 102.362 363.38 102.235C363.144 102.107 362.967 101.894 362.885 101.639L358.221 87.5706C355.649 87.4305 353.182 86.508 351.148 84.9267C349.115 83.3454 347.614 81.1808 346.845 78.7226C345.746 75.4728 345.946 71.9236 347.405 68.8183C348.863 65.713 351.466 63.2923 354.669 62.0631C356.251 61.5228 357.925 61.3063 359.591 61.4267C361.258 61.5471 362.884 62.0019 364.371 62.7638C365.859 63.5258 367.177 64.5794 368.249 65.8619C369.32 67.1443 370.123 68.6294 370.608 70.2285C371.421 72.7256 371.489 75.4057 370.802 77.9404C370.115 80.4751 368.703 82.7544 366.74 84.4991L366.728 84.4612Z" fill="#DC2C1D"/>
<path d="M373.427 28.6686C373.427 28.8455 361.356 33.3833 346.34 38.7806C331.323 44.1778 319.075 48.5134 319.012 48.387C318.949 48.2606 331.083 43.6849 346.112 38.275C361.141 32.865 373.364 28.5042 373.427 28.6686Z" fill="white"/>
<path d="M387.76 30.9941C387.816 31.1038 387.863 31.218 387.899 31.3354C388.001 31.5882 388.114 31.9169 388.266 32.3213C388.595 33.2441 389.05 34.5207 389.618 36.1133L394.472 50.2449C396.495 56.2362 398.909 63.3399 401.589 71.2273C402.853 75.1836 404.344 79.3042 405.734 83.6397C406.479 85.8739 406.8 88.2272 406.682 90.5791C406.575 91.8023 406.227 92.9922 405.659 94.0804C405.051 95.165 404.24 96.122 403.27 96.8991C401.317 98.3246 399.149 99.4297 396.849 100.173L390.339 102.511L378.015 106.923L357.146 114.355L343.053 119.31L339.261 120.574L338.249 120.902C338.141 120.951 338.026 120.98 337.908 120.991C337.908 120.991 338.009 120.991 338.224 120.839L339.21 120.447L343.002 119.019L357.02 113.862L377.851 106.278L390.149 101.829L396.659 99.4777C398.894 98.7647 400.999 97.6932 402.89 96.305C403.793 95.584 404.549 94.6956 405.115 93.6885C405.65 92.6821 405.973 91.5764 406.063 90.4401C406.179 88.1739 405.871 85.9061 405.153 83.7535C403.788 79.4559 402.347 75.2973 401.045 71.341C398.416 63.441 395.989 56.3121 394.068 50.3207C392.146 44.3293 390.529 39.5135 389.416 36.126C388.885 34.4701 388.481 33.1809 388.152 32.2455L387.849 31.2343C387.811 31.1577 387.781 31.0772 387.76 30.9941Z" fill="white"/>
<path d="M352.166 13.5632C352.166 13.5632 351.496 13.2345 350.257 12.7289C348.492 12.0505 346.624 11.6744 344.734 11.6166C341.931 11.5205 339.143 12.0472 336.568 13.1587C333.438 14.5427 330.761 16.7814 328.845 19.6177C326.917 22.4459 325.882 25.7882 325.875 29.2115C325.901 32.0172 326.327 34.8049 327.139 37.4907C327.796 39.7911 328.479 41.624 328.934 42.9006C329.202 43.549 329.422 44.2166 329.591 44.8977C329.232 44.2914 328.932 43.6523 328.694 42.9891C328.175 41.7251 327.43 39.9302 326.697 37.6171C325.797 34.9031 325.307 32.07 325.243 29.2115C325.209 25.6589 326.268 22.1818 328.277 19.2512C330.259 16.3112 333.045 14.0033 336.303 12.6025C338.958 11.4849 341.833 10.9919 344.709 11.1616C346.64 11.26 348.538 11.7097 350.308 12.4887C350.781 12.7071 351.238 12.9606 351.673 13.2472C351.853 13.3261 352.019 13.4328 352.166 13.5632Z" fill="white"/>
<path d="M352.749 63.0238C352.95 62.9015 353.162 62.7959 353.381 62.7078C354.013 62.4223 354.669 62.1897 355.34 62.0126C356.405 61.6981 357.504 61.5114 358.614 61.4564C360.123 61.3753 361.632 61.6033 363.05 62.1263C366.286 63.2639 369.256 66.563 370.723 70.9743C371.426 73.3417 371.426 75.8624 370.723 78.2297C369.943 80.7991 368.546 83.1383 366.653 85.0427L366.728 84.7014C368.41 89.315 370.242 94.3204 372.138 99.5407L372.252 99.8567L371.936 99.9705L369.042 100.931L362.722 103.042L362.406 103.143L362.304 102.827C360.573 97.5942 358.677 92.7151 357.248 87.9246L357.527 88.1395C355.055 87.9342 352.699 87.0067 350.751 85.4724C348.989 84.1151 347.544 82.3896 346.517 80.4164C345.59 78.6666 345.129 76.7079 345.177 74.7284C345.236 72.7053 345.741 70.7202 346.656 68.9152C347.572 67.1102 348.876 65.53 350.473 64.2878C351.131 63.7539 351.869 63.3273 352.66 63.0238C351.946 63.4474 351.254 63.9073 350.587 64.4015C348.832 65.8866 347.487 67.7971 346.681 69.9505C345.99 71.5743 345.666 73.331 345.734 75.0947C345.802 76.8583 346.259 78.585 347.073 80.151C348.083 82.0492 349.493 83.7054 351.207 85.0047C353.065 86.4631 355.311 87.3423 357.666 87.5327H357.88L357.944 87.7223C359.334 92.4244 361.243 97.3414 363 102.6L362.583 102.397L368.903 100.286L371.784 99.3132L371.582 99.743C369.699 94.5227 367.879 89.5046 366.21 84.891V84.7014L366.362 84.5497C368.199 82.7243 369.57 80.4826 370.356 78.0148C371.027 75.7503 371.027 73.34 370.356 71.0755C368.978 66.8284 366.134 63.6052 363.05 62.4676C361.685 61.9412 360.228 61.6961 358.765 61.7471C357.673 61.7722 356.588 61.9206 355.529 62.1895C353.646 62.6572 352.761 63.087 352.749 63.0238Z" fill="#263238"/>
<path d="M313.678 427.99L187.417 427.409C180.125 427.369 173.148 424.436 168.017 419.255C162.886 414.075 160.021 407.069 160.051 399.778L161.391 83.2594C161.406 79.647 162.132 76.0729 163.529 72.7415C164.926 69.41 166.966 66.3866 169.532 63.844C172.099 61.3013 175.141 59.2893 178.485 57.923C181.829 56.5567 185.409 55.8629 189.022 55.8812L315.27 56.4627C322.562 56.4994 329.54 59.4287 334.674 64.6071C339.807 69.7855 342.675 76.7895 342.648 84.081L341.309 400.587C341.294 404.2 340.567 407.776 339.171 411.108C337.774 414.441 335.734 417.466 333.169 420.011C330.603 422.556 327.561 424.57 324.217 425.939C320.872 427.308 317.291 428.005 313.678 427.99Z" fill="#1D1C1C"/>
<path d="M314.624 67.3461H290.153C289.355 67.3609 288.567 67.5329 287.835 67.8522C287.103 68.1715 286.441 68.6318 285.887 69.207C285.333 69.7821 284.898 70.4608 284.606 71.2042C284.314 71.9477 284.172 72.7413 284.187 73.5397V77.9764C284.202 78.7742 284.06 79.5672 283.768 80.3099C283.476 81.0526 283.041 81.7304 282.486 82.3045C281.932 82.8787 281.27 83.3379 280.538 83.6558C279.806 83.9737 279.019 84.1442 278.221 84.1573L230.518 83.9424C228.904 83.8994 227.373 83.2177 226.262 82.0469C225.15 80.8761 224.549 79.3121 224.589 77.6983V73.2616C224.63 71.6499 224.031 70.0878 222.922 68.9174C221.813 67.747 220.286 67.0638 218.674 67.0175H210.066L188.641 66.9164C183.545 66.886 178.645 68.8762 175.013 72.4511C171.382 76.026 169.314 80.8943 169.264 85.9901L168 394.937C167.989 397.465 168.475 399.971 169.432 402.311C170.388 404.651 171.797 406.779 173.576 408.575C175.355 410.371 177.471 411.799 179.802 412.777C182.133 413.755 184.634 414.265 187.162 414.276L313.158 414.858C315.688 414.869 318.195 414.383 320.537 413.425C322.878 412.468 325.008 411.059 326.805 409.278C328.602 407.498 330.031 405.381 331.01 403.048C331.988 400.715 332.498 398.212 332.51 395.683L333.774 86.7359C333.804 81.6257 331.804 76.7126 328.213 73.0767C324.622 69.4408 319.734 67.3795 314.624 67.3461Z" fill="#272727"/>
<circle cx="251" cy="151" r="54" fill="#D9D9D9" fill-opacity="0.01"/>
<circle cx="251" cy="151" r="45" fill="#D9D9D9" fill-opacity="0.01"/>
<circle cx="251" cy="150.999" r="35.8475" fill="#D9D9D9" fill-opacity="0.02"/>
<circle cx="251.458" cy="151.462" r="27.4576" fill="#D9D9D9" fill-opacity="0.03"/>
<mask id="mask0_112_5" style="mask-type:alpha" maskUnits="userSpaceOnUse" x="224" y="124" width="55" height="55">
<circle cx="251.458" cy="151.458" r="27.4582" fill="#D9D9D9"/>
</mask>
<g mask="url(#mask0_112_5)">
<path d="M223.34 141.428C223.592 141.553 223.717 141.553 223.843 141.679C225.102 142.56 226.36 143.567 227.744 144.196C228.247 144.448 228.751 144.574 229.38 144.699C232.023 144.951 234.665 145.58 237.308 146.084C237.811 146.209 238.314 146.209 238.818 146.209C239.447 146.209 239.95 145.958 240.202 145.329C240.454 144.699 240.076 144.196 239.573 143.819C238.44 142.812 237.056 142.812 235.672 142.938C235.294 142.938 234.917 143.063 234.539 143.063C235.294 142.183 236.301 141.553 237.434 141.553C238.692 141.553 239.699 141.176 240.58 140.295C241.838 139.037 243.222 138.911 244.858 139.54C246.494 140.169 248.004 140.924 249.514 141.679C250.521 142.308 251.402 142.938 252.157 143.944C252.534 144.574 253.163 145.077 254.044 145.077C254.799 144.951 254.925 144.699 254.547 144.196C253.289 142.56 252.031 141.05 250.647 139.666C250.017 138.911 249.388 138.282 248.759 137.527C248.381 137.149 248.004 136.772 247.501 136.646C245.236 136.017 242.845 135.387 240.58 134.758C238.314 134.129 236.049 134.507 233.659 134.884C231.268 135.387 228.877 135.136 226.486 134.255L223.34 141.428ZM242.09 140.673C241.586 140.547 241.335 140.924 241.083 141.176C240.705 141.428 240.831 141.679 241.209 141.805C241.586 141.931 242.09 142.183 242.467 142.434C243.977 143.063 245.11 144.196 246.242 145.329C246.368 145.58 246.746 145.832 246.997 145.706C247.249 145.454 246.997 145.077 246.871 144.825C245.739 143.315 244.481 142.057 242.845 141.05C242.467 140.924 242.215 140.798 242.09 140.673ZM243.222 140.295C244.481 141.176 245.613 142.057 246.62 143.189C247.249 143.944 247.878 144.699 248.507 145.329C248.759 145.58 249.011 145.958 249.388 145.706C249.64 145.454 249.388 145.077 249.136 144.825C248.256 143.441 247.123 142.308 245.991 141.302C245.11 140.673 244.229 140.295 243.222 140.295ZM248.256 142.308C249.136 143.315 250.017 144.448 250.898 145.454C251.024 145.706 251.276 145.958 251.527 145.706C251.779 145.58 251.527 145.203 251.527 145.077C251.402 144.825 251.276 144.699 251.15 144.448C250.521 143.315 249.388 142.812 248.256 142.308Z" fill="#DE2C1B"/>
<path d="M281.854 159.545C279.463 156.776 276.317 155.141 272.92 154.008C272.165 153.756 271.41 153.756 270.654 153.756C267.509 153.756 264.363 153.379 261.217 153.127C260.084 153.001 258.952 152.876 257.945 152.876C257.19 152.75 256.435 153.001 255.68 153.379C254.421 154.134 254.296 155.266 255.428 156.273C256.812 157.531 258.448 157.783 260.21 157.531C261.091 157.406 262.098 157.154 262.978 157.028C262.098 158.035 261.091 159.042 259.707 159.167C257.567 159.293 255.806 160.3 254.421 161.936C253.037 163.572 251.527 163.823 249.64 163.32C246.368 162.565 243.222 161.558 240.202 160.048C239.321 159.671 238.818 158.916 238.063 158.287C237.559 157.783 237.056 157.28 236.301 156.902C235.546 156.525 234.791 156.651 234.162 156.902C233.532 157.154 233.532 157.531 233.91 158.035C235.168 159.545 236.553 160.677 237.937 162.062C239.698 163.698 241.46 165.082 243.222 166.718C244.354 167.85 245.739 168.228 247.249 168.479C249.891 168.857 252.534 169.234 255.051 169.738C257.442 170.241 259.707 169.864 262.098 169.486C264.614 169.109 266.879 167.976 269.396 167.724C270.654 167.598 271.913 167.598 273.171 167.724C273.423 167.724 273.8 167.85 273.926 167.85L281.854 159.545ZM252.911 161.558C253.289 161.684 253.415 161.558 253.666 161.432C253.918 161.181 254.17 160.929 254.421 160.677C254.673 160.426 255.051 160.3 254.925 160.048C254.799 159.671 254.421 159.797 254.17 159.671C251.401 158.916 248.885 157.783 246.871 155.77C246.494 155.392 245.99 155.015 245.361 154.763C244.984 154.637 244.732 154.763 244.858 155.266C244.858 155.644 245.235 156.021 245.487 156.273C247.249 158.287 249.388 159.797 251.779 161.055C252.031 161.181 252.534 161.432 252.911 161.558ZM252.031 162.565C251.905 162.313 251.779 162.313 251.653 162.313C249.891 161.558 248.381 160.552 246.871 159.419C245.487 158.287 244.229 156.902 242.844 155.644C242.467 155.266 241.838 154.637 241.334 155.015C240.831 155.518 241.46 156.147 241.712 156.525C243.474 158.664 245.487 160.426 247.878 161.684C249.262 162.439 250.646 162.565 252.031 162.565ZM244.229 160.552C242.719 159.042 241.209 157.531 239.698 156.021C239.447 155.77 239.069 155.518 238.692 155.266C238.188 155.015 237.937 155.266 238.063 155.77C238.188 156.399 238.566 156.776 238.818 157.28C240.076 159.167 242.089 159.797 244.229 160.552Z" fill="white"/>
</g>
<rect x="202" y="342" width="98" height="30" rx="15" fill="#DC2C1D"/>
<path d="M234.898 355.489C234.859 355.143 234.699 354.876 234.416 354.686C234.134 354.494 233.779 354.397 233.351 354.397C233.044 354.397 232.779 354.446 232.555 354.543C232.331 354.638 232.157 354.77 232.033 354.938C231.911 355.103 231.85 355.292 231.85 355.503C231.85 355.681 231.892 355.834 231.975 355.963C232.06 356.092 232.17 356.2 232.307 356.288C232.445 356.373 232.594 356.445 232.752 356.503C232.91 356.559 233.062 356.606 233.208 356.642L233.938 356.832C234.177 356.89 234.421 356.969 234.672 357.069C234.922 357.169 235.155 357.3 235.369 357.463C235.583 357.626 235.756 357.828 235.887 358.069C236.021 358.31 236.088 358.598 236.088 358.934C236.088 359.358 235.978 359.734 235.759 360.062C235.543 360.39 235.228 360.65 234.814 360.839C234.403 361.029 233.905 361.124 233.321 361.124C232.762 361.124 232.277 361.035 231.869 360.858C231.46 360.68 231.14 360.428 230.909 360.102C230.678 359.774 230.55 359.384 230.526 358.934H231.657C231.679 359.204 231.767 359.429 231.92 359.609C232.076 359.787 232.274 359.92 232.515 360.007C232.758 360.092 233.024 360.135 233.314 360.135C233.633 360.135 233.916 360.085 234.164 359.985C234.415 359.883 234.612 359.742 234.756 359.562C234.899 359.379 234.971 359.167 234.971 358.923C234.971 358.702 234.908 358.521 234.781 358.379C234.657 358.238 234.488 358.121 234.274 358.029C234.062 357.937 233.823 357.855 233.555 357.784L232.672 357.544C232.073 357.381 231.599 357.141 231.248 356.825C230.9 356.508 230.726 356.09 230.726 355.569C230.726 355.138 230.843 354.762 231.077 354.441C231.31 354.12 231.627 353.871 232.026 353.693C232.425 353.513 232.875 353.423 233.376 353.423C233.882 353.423 234.329 353.512 234.716 353.689C235.105 353.867 235.411 354.112 235.635 354.423C235.859 354.732 235.976 355.087 235.986 355.489H234.898ZM238.563 353.525V361H237.436V353.525H238.563ZM246.239 353.525V361H245.202L241.403 355.518H241.334V361H240.206V353.525H241.25L245.053 359.014H245.122V353.525H246.239ZM252.943 355.887C252.872 355.665 252.777 355.467 252.658 355.292C252.541 355.114 252.401 354.963 252.238 354.839C252.075 354.713 251.889 354.616 251.68 354.551C251.473 354.485 251.246 354.452 250.998 354.452C250.577 354.452 250.197 354.56 249.859 354.777C249.521 354.994 249.253 355.311 249.056 355.73C248.861 356.146 248.764 356.655 248.764 357.259C248.764 357.865 248.862 358.377 249.059 358.795C249.257 359.214 249.527 359.532 249.87 359.748C250.213 359.965 250.603 360.073 251.041 360.073C251.448 360.073 251.802 359.99 252.103 359.825C252.408 359.659 252.642 359.426 252.808 359.124C252.976 358.82 253.06 358.462 253.06 358.051L253.352 358.106H251.213V357.175H254.151V358.025C254.151 358.653 254.017 359.198 253.75 359.661C253.484 360.12 253.117 360.476 252.647 360.726C252.18 360.977 251.645 361.102 251.041 361.102C250.365 361.102 249.771 360.946 249.26 360.635C248.752 360.324 248.355 359.882 248.07 359.31C247.786 358.736 247.643 358.055 247.643 357.266C247.643 356.67 247.726 356.135 247.892 355.66C248.057 355.186 248.289 354.783 248.589 354.452C248.89 354.119 249.244 353.865 249.651 353.689C250.06 353.512 250.506 353.423 250.99 353.423C251.394 353.423 251.77 353.483 252.118 353.602C252.468 353.721 252.78 353.89 253.052 354.109C253.327 354.328 253.555 354.588 253.735 354.89C253.915 355.189 254.037 355.522 254.1 355.887H252.943ZM263.11 353.525H264.241V358.441C264.241 358.965 264.118 359.428 263.872 359.832C263.627 360.234 263.281 360.55 262.836 360.781C262.39 361.01 261.869 361.124 261.27 361.124C260.674 361.124 260.153 361.01 259.708 360.781C259.263 360.55 258.917 360.234 258.671 359.832C258.426 359.428 258.303 358.965 258.303 358.441V353.525H259.43V358.35C259.43 358.688 259.505 358.989 259.653 359.252C259.804 359.515 260.017 359.721 260.292 359.872C260.567 360.021 260.893 360.095 261.27 360.095C261.65 360.095 261.977 360.021 262.252 359.872C262.529 359.721 262.741 359.515 262.887 359.252C263.035 358.989 263.11 358.688 263.11 358.35V353.525ZM265.881 361V353.525H268.545C269.127 353.525 269.608 353.631 269.99 353.843C270.372 354.054 270.658 354.344 270.848 354.711C271.038 355.076 271.133 355.488 271.133 355.945C271.133 356.405 271.037 356.819 270.844 357.186C270.655 357.551 270.368 357.84 269.983 358.055C269.601 358.266 269.12 358.372 268.541 358.372H266.709V357.416H268.439C268.807 357.416 269.105 357.353 269.333 357.226C269.562 357.097 269.73 356.922 269.837 356.7C269.944 356.479 269.998 356.227 269.998 355.945C269.998 355.663 269.944 355.412 269.837 355.193C269.73 354.974 269.561 354.803 269.33 354.678C269.101 354.554 268.799 354.492 268.425 354.492H267.008V361H265.881Z" fill="white"/>
<path d="M218.537 269.38L186.027 269.232L186 275.198L218.51 275.346L218.537 269.38Z" fill="#DC2C1D"/>
<path opacity="0.1" d="M218.537 269.38L186.027 269.232L186 275.198L218.51 275.346L218.537 269.38Z" fill="black"/>
<path d="M219.021 222.591L186.512 222.443L186.485 228.409L218.994 228.557L219.021 222.591Z" fill="#DC2C1D"/>
<path opacity="0.1" d="M219.021 222.591L186.512 222.443L186.485 228.409L218.994 228.557L219.021 222.591Z" fill="black"/>
<path d="M313.722 259.222C313.977 259.191 314.23 259.145 314.48 259.083C314.833 258.971 315.158 258.784 315.433 258.536C315.708 258.287 315.926 257.983 316.073 257.642C316.272 257.132 316.35 256.583 316.3 256.037C316.3 255.43 316.3 254.773 316.3 254.04C316.3 252.574 316.3 250.905 316.3 248.984V240.958C316.361 240.377 316.232 239.791 315.934 239.289C315.622 238.774 315.132 238.392 314.556 238.215C313.927 238.102 313.285 238.068 312.647 238.114H294.459L189.104 237.722C188.537 237.723 187.991 237.93 187.565 238.305C187.14 238.679 186.865 239.195 186.791 239.757C186.791 240.958 186.791 242.285 186.791 243.549C186.791 246.077 186.791 248.605 186.791 251.133C186.791 252.397 186.791 253.661 186.791 254.925C186.744 255.516 186.769 256.11 186.867 256.694C187.025 257.207 187.349 257.652 187.79 257.958C188.256 258.255 188.805 258.396 189.357 258.363H191.114H194.767L222.739 258.502L270.101 258.793L302.03 259.046L310.714 259.147H312.976H313.735H312.976H310.714H302.03H270.101L222.714 259.096L194.742 258.995H189.243C188.559 259.035 187.881 258.854 187.309 258.477C186.734 258.078 186.314 257.493 186.121 256.821C186.008 256.179 185.974 255.525 186.02 254.874C186.02 253.61 186.02 252.346 186.02 251.082C186.02 248.554 186.02 246.026 186.02 243.498C186.02 242.234 186.02 240.97 186.02 239.706C186.112 238.984 186.465 238.319 187.011 237.838C187.558 237.356 188.262 237.09 188.99 237.09L294.345 237.671L312.534 237.81C313.211 237.769 313.891 237.816 314.556 237.949C315.213 238.164 315.767 238.614 316.111 239.213C316.438 239.77 316.579 240.416 316.515 241.059C316.515 241.653 316.515 242.234 316.515 242.816C316.515 245.104 316.515 247.202 316.515 249.136C316.515 251.07 316.515 252.7 316.515 254.192C316.515 254.912 316.515 255.582 316.515 256.202C316.561 256.767 316.47 257.335 316.25 257.857C316.086 258.206 315.848 258.515 315.554 258.764C315.259 259.013 314.915 259.195 314.543 259.298C314.267 259.321 313.989 259.295 313.722 259.222Z" fill="#878787"/>
<path d="M254.688 245.657L195.23 245.387L195.205 250.961L254.663 251.231L254.688 245.657Z" fill="#DC2C1D"/>
<path opacity="0.2" d="M254.688 245.657L195.23 245.387L195.205 250.961L254.663 251.231L254.688 245.657Z" fill="white"/>
<path d="M313.608 305.988C313.864 305.958 314.117 305.912 314.367 305.849C314.718 305.738 315.042 305.553 315.316 305.306C315.591 305.06 315.81 304.758 315.959 304.421C316.157 303.91 316.235 303.361 316.187 302.816C316.187 302.196 316.187 301.552 316.187 300.806C316.187 299.352 316.187 297.671 316.187 295.75V287.724C316.247 287.142 316.118 286.557 315.82 286.055C315.501 285.549 315.013 285.173 314.442 284.993C313.813 284.876 313.172 284.838 312.534 284.88H294.345L188.99 284.488C188.424 284.489 187.877 284.696 187.451 285.07C187.026 285.445 186.751 285.961 186.677 286.523C186.677 287.787 186.677 289.051 186.677 290.315C186.677 292.843 186.677 295.371 186.677 297.899C186.677 299.163 186.677 300.427 186.677 301.691C186.63 302.277 186.656 302.867 186.753 303.448C186.904 303.963 187.231 304.41 187.676 304.712C188.14 305.015 188.69 305.157 189.243 305.116H194.742L222.714 305.268L270.076 305.559L302.005 305.811L310.688 305.913H312.951C313.456 305.913 313.709 305.913 313.709 305.913C313.709 305.913 313.456 305.913 312.951 305.913H310.688H302.005H270.076L222.714 305.773L194.742 305.66H189.243C188.559 305.706 187.879 305.524 187.309 305.141C186.734 304.743 186.314 304.158 186.121 303.486C186.008 302.843 185.974 302.19 186.02 301.539C186.02 300.275 186.02 299.011 186.02 297.747C186.02 295.219 186.02 292.691 186.02 290.163C186.02 288.899 186.02 287.635 186.02 286.308C186.109 285.586 186.459 284.922 187.004 284.44C187.549 283.958 188.25 283.692 188.978 283.691L294.332 284.273L312.521 284.412C313.198 284.37 313.878 284.417 314.543 284.551C315.2 284.765 315.754 285.216 316.098 285.815C316.425 286.372 316.567 287.018 316.503 287.66C316.503 288.254 316.503 288.849 316.503 289.417C316.503 291.705 316.503 293.803 316.503 295.737C316.503 297.671 316.503 299.302 316.503 300.793C316.503 301.514 316.503 302.184 316.503 302.803C316.551 303.368 316.46 303.937 316.237 304.459C316.073 304.808 315.836 305.117 315.541 305.366C315.247 305.614 314.902 305.797 314.531 305.9C314.234 306.001 313.918 306.032 313.608 305.988Z" fill="#878787"/>
<path d="M200.746 295.675C200.708 296.184 200.523 296.67 200.211 297.074C199.9 297.478 199.477 297.781 198.995 297.947C198.513 298.113 197.993 298.133 197.499 298.006C197.006 297.879 196.56 297.61 196.218 297.232C195.876 296.854 195.652 296.384 195.575 295.88C195.498 295.376 195.57 294.86 195.783 294.397C195.996 293.934 196.34 293.544 196.773 293.274C197.206 293.005 197.708 292.868 198.218 292.882C198.922 292.921 199.582 293.236 200.055 293.759C200.529 294.282 200.777 294.971 200.746 295.675Z" fill="#DC2C1D"/>
<path d="M208.797 295.713C208.822 296.069 208.773 296.427 208.654 296.764C208.535 297.1 208.347 297.409 208.104 297.67C207.86 297.931 207.565 298.14 207.238 298.282C206.91 298.425 206.557 298.498 206.2 298.498C205.842 298.498 205.489 298.425 205.161 298.282C204.834 298.14 204.539 297.931 204.295 297.67C204.052 297.409 203.864 297.1 203.745 296.764C203.626 296.427 203.577 296.069 203.602 295.713C203.577 295.357 203.626 294.999 203.745 294.662C203.864 294.325 204.052 294.017 204.295 293.756C204.539 293.494 204.834 293.286 205.161 293.144C205.489 293.001 205.842 292.928 206.2 292.928C206.557 292.928 206.91 293.001 207.238 293.144C207.565 293.286 207.86 293.494 208.104 293.756C208.347 294.017 208.535 294.325 208.654 294.662C208.773 294.999 208.822 295.357 208.797 295.713Z" fill="#DC2C1D"/>
<path d="M216.861 295.751C216.824 296.26 216.638 296.746 216.327 297.15C216.016 297.554 215.593 297.857 215.111 298.023C214.629 298.189 214.108 298.21 213.615 298.082C213.121 297.955 212.675 297.686 212.333 297.308C211.991 296.93 211.768 296.46 211.69 295.956C211.613 295.452 211.685 294.937 211.898 294.473C212.111 294.01 212.455 293.62 212.888 293.35C213.321 293.081 213.823 292.944 214.333 292.958C215.036 293 215.694 293.317 216.167 293.839C216.639 294.361 216.889 295.048 216.861 295.751Z" fill="#DC2C1D"/>
<path d="M224.914 295.789C224.876 296.297 224.691 296.783 224.379 297.187C224.068 297.591 223.645 297.895 223.163 298.06C222.681 298.226 222.161 298.247 221.667 298.12C221.174 297.992 220.728 297.723 220.386 297.345C220.044 296.967 219.82 296.497 219.743 295.993C219.666 295.489 219.738 294.974 219.951 294.511C220.164 294.047 220.508 293.657 220.941 293.387C221.374 293.118 221.876 292.982 222.386 292.995C223.089 293.037 223.747 293.354 224.22 293.876C224.692 294.398 224.941 295.085 224.914 295.789Z" fill="#DC2C1D"/>
<path d="M232.965 295.813C232.93 296.322 232.747 296.81 232.437 297.216C232.127 297.621 231.705 297.927 231.223 298.094C230.741 298.262 230.22 298.284 229.726 298.159C229.231 298.033 228.784 297.764 228.441 297.387C228.098 297.009 227.873 296.539 227.794 296.034C227.716 295.53 227.788 295.014 228.001 294.55C228.213 294.086 228.558 293.695 228.991 293.425C229.424 293.155 229.927 293.019 230.437 293.032C231.138 293.075 231.794 293.389 232.267 293.909C232.739 294.428 232.99 295.111 232.965 295.813Z" fill="#DC2C1D"/>
<path d="M241.03 295.851C240.995 296.358 240.813 296.843 240.507 297.248C240.2 297.652 239.781 297.958 239.303 298.128C238.824 298.298 238.307 298.324 237.814 298.204C237.32 298.083 236.873 297.821 236.527 297.449C236.181 297.078 235.951 296.613 235.865 296.113C235.78 295.612 235.842 295.098 236.046 294.632C236.249 294.167 236.584 293.771 237.009 293.494C237.434 293.216 237.931 293.069 238.439 293.07C239.151 293.097 239.823 293.404 240.309 293.925C240.794 294.447 241.054 295.139 241.03 295.851Z" fill="#DC2C1D"/>
<path d="M249.08 295.889C249.105 296.245 249.056 296.603 248.937 296.939C248.818 297.276 248.631 297.585 248.387 297.846C248.143 298.107 247.849 298.315 247.521 298.458C247.193 298.6 246.84 298.674 246.483 298.674C246.126 298.674 245.772 298.6 245.445 298.458C245.117 298.315 244.822 298.107 244.579 297.846C244.335 297.585 244.148 297.276 244.028 296.939C243.909 296.603 243.86 296.245 243.885 295.889C243.86 295.532 243.909 295.175 244.028 294.838C244.148 294.501 244.335 294.193 244.579 293.931C244.822 293.67 245.117 293.462 245.445 293.319C245.772 293.177 246.126 293.104 246.483 293.104C246.84 293.104 247.193 293.177 247.521 293.319C247.849 293.462 248.143 293.67 248.387 293.931C248.631 294.193 248.818 294.501 248.937 294.838C249.056 295.175 249.105 295.532 249.08 295.889Z" fill="#DC2C1D"/>
<path d="M257.133 295.927C257.099 296.434 256.917 296.919 256.61 297.324C256.303 297.728 255.885 298.034 255.406 298.204C254.928 298.374 254.41 298.4 253.917 298.28C253.424 298.159 252.977 297.897 252.63 297.525C252.284 297.154 252.054 296.689 251.969 296.189C251.883 295.688 251.946 295.174 252.149 294.709C252.352 294.243 252.687 293.847 253.112 293.57C253.537 293.292 254.034 293.145 254.542 293.146C255.254 293.173 255.927 293.48 256.412 294.002C256.898 294.523 257.157 295.215 257.133 295.927Z" fill="#DC2C1D"/>
<path d="M265.184 295.965C265.149 296.474 264.965 296.962 264.656 297.368C264.346 297.773 263.924 298.079 263.442 298.247C262.96 298.414 262.439 298.437 261.944 298.311C261.45 298.185 261.003 297.917 260.66 297.539C260.316 297.161 260.091 296.691 260.013 296.187C259.935 295.682 260.007 295.166 260.219 294.702C260.432 294.238 260.776 293.847 261.21 293.577C261.643 293.307 262.146 293.171 262.656 293.185C263.357 293.227 264.013 293.541 264.485 294.061C264.958 294.58 265.208 295.264 265.184 295.965Z" fill="#DC2C1D"/>
<g opacity="0.2">
<path d="M200.746 295.675C200.708 296.184 200.523 296.67 200.211 297.074C199.9 297.478 199.477 297.781 198.995 297.947C198.513 298.113 197.993 298.133 197.499 298.006C197.006 297.879 196.56 297.61 196.218 297.232C195.876 296.854 195.652 296.384 195.575 295.88C195.498 295.376 195.57 294.86 195.783 294.397C195.996 293.934 196.34 293.544 196.773 293.274C197.206 293.005 197.708 292.868 198.218 292.882C198.922 292.921 199.582 293.236 200.055 293.759C200.529 294.282 200.777 294.971 200.746 295.675Z" fill="white"/>
<path d="M208.797 295.713C208.822 296.069 208.773 296.427 208.654 296.764C208.535 297.1 208.347 297.409 208.104 297.67C207.86 297.931 207.565 298.14 207.238 298.282C206.91 298.425 206.557 298.498 206.2 298.498C205.842 298.498 205.489 298.425 205.161 298.282C204.834 298.14 204.539 297.931 204.295 297.67C204.052 297.409 203.864 297.1 203.745 296.764C203.626 296.427 203.577 296.069 203.602 295.713C203.577 295.357 203.626 294.999 203.745 294.662C203.864 294.325 204.052 294.017 204.295 293.756C204.539 293.494 204.834 293.286 205.161 293.144C205.489 293.001 205.842 292.928 206.2 292.928C206.557 292.928 206.91 293.001 207.238 293.144C207.565 293.286 207.86 293.494 208.104 293.756C208.347 294.017 208.535 294.325 208.654 294.662C208.773 294.999 208.822 295.357 208.797 295.713Z" fill="white"/>
<path d="M216.861 295.751C216.824 296.26 216.638 296.746 216.327 297.15C216.016 297.554 215.593 297.857 215.111 298.023C214.629 298.189 214.108 298.21 213.615 298.082C213.121 297.955 212.675 297.686 212.333 297.308C211.991 296.93 211.768 296.46 211.69 295.956C211.613 295.452 211.685 294.937 211.898 294.473C212.111 294.01 212.455 293.62 212.888 293.35C213.321 293.081 213.823 292.944 214.333 292.958C215.036 293 215.694 293.317 216.167 293.839C216.639 294.361 216.889 295.048 216.861 295.751Z" fill="white"/>
<path d="M224.914 295.789C224.876 296.298 224.691 296.784 224.379 297.188C224.068 297.592 223.645 297.896 223.163 298.061C222.681 298.227 222.161 298.248 221.667 298.121C221.174 297.993 220.728 297.724 220.386 297.346C220.044 296.968 219.82 296.498 219.743 295.994C219.666 295.49 219.738 294.975 219.951 294.511C220.164 294.048 220.508 293.658 220.941 293.388C221.374 293.119 221.876 292.983 222.386 292.996C223.089 293.038 223.747 293.355 224.22 293.877C224.692 294.399 224.941 295.086 224.914 295.789Z" fill="white"/>
<path d="M232.965 295.814C232.93 296.323 232.747 296.811 232.437 297.216C232.127 297.622 231.705 297.928 231.223 298.095C230.741 298.263 230.22 298.285 229.726 298.16C229.231 298.034 228.784 297.765 228.441 297.388C228.098 297.01 227.873 296.54 227.794 296.035C227.716 295.531 227.788 295.015 228.001 294.551C228.213 294.087 228.558 293.696 228.991 293.426C229.424 293.156 229.927 293.019 230.437 293.033C231.138 293.076 231.794 293.39 232.267 293.91C232.739 294.429 232.99 295.112 232.965 295.814Z" fill="white"/>
<path d="M241.03 295.852C240.995 296.359 240.813 296.844 240.507 297.249C240.2 297.653 239.781 297.959 239.303 298.129C238.824 298.299 238.307 298.325 237.814 298.204C237.32 298.084 236.873 297.822 236.527 297.45C236.181 297.079 235.951 296.614 235.865 296.114C235.78 295.613 235.842 295.099 236.046 294.633C236.249 294.168 236.584 293.772 237.009 293.495C237.434 293.217 237.931 293.07 238.439 293.071C239.151 293.098 239.823 293.405 240.309 293.926C240.794 294.448 241.054 295.14 241.03 295.852Z" fill="white"/>
<path d="M249.08 295.891C249.105 296.247 249.056 296.605 248.937 296.941C248.818 297.278 248.631 297.587 248.387 297.848C248.143 298.109 247.849 298.317 247.521 298.46C247.193 298.602 246.84 298.676 246.483 298.676C246.126 298.676 245.772 298.602 245.445 298.46C245.117 298.317 244.822 298.109 244.579 297.848C244.335 297.587 244.148 297.278 244.028 296.941C243.909 296.605 243.86 296.247 243.885 295.891C243.86 295.534 243.909 295.177 244.028 294.84C244.148 294.503 244.335 294.195 244.579 293.933C244.822 293.672 245.117 293.464 245.445 293.321C245.772 293.179 246.126 293.105 246.483 293.105C246.84 293.105 247.193 293.179 247.521 293.321C247.849 293.464 248.143 293.672 248.387 293.933C248.631 294.195 248.818 294.503 248.937 294.84C249.056 295.177 249.105 295.534 249.08 295.891Z" fill="white"/>
<path d="M257.133 295.928C257.099 296.435 256.917 296.92 256.61 297.325C256.303 297.729 255.885 298.035 255.406 298.205C254.928 298.375 254.41 298.401 253.917 298.281C253.424 298.16 252.977 297.898 252.63 297.526C252.284 297.155 252.054 296.69 251.969 296.19C251.883 295.689 251.946 295.175 252.149 294.71C252.352 294.244 252.687 293.848 253.112 293.571C253.537 293.293 254.034 293.146 254.542 293.147C255.254 293.174 255.927 293.481 256.412 294.003C256.898 294.524 257.157 295.216 257.133 295.928Z" fill="white"/>
<path d="M265.184 295.966C265.149 296.475 264.965 296.963 264.656 297.369C264.346 297.774 263.924 298.08 263.442 298.248C262.96 298.415 262.439 298.438 261.944 298.312C261.45 298.186 261.003 297.918 260.66 297.54C260.316 297.162 260.091 296.692 260.013 296.188C259.935 295.683 260.007 295.167 260.219 294.703C260.432 294.239 260.776 293.848 261.21 293.578C261.643 293.308 262.146 293.172 262.656 293.186C263.357 293.228 264.013 293.542 264.485 294.062C264.958 294.581 265.208 295.265 265.184 295.966Z" fill="white"/>
</g>
<path fill-rule="evenodd" clip-rule="evenodd" d="M65.4033 164.27H65.349C65.3671 164.27 65.3852 164.27 65.4033 164.27ZM63.7851 164.345L64.8092 164.27H65.349C65.1684 164.271 64.9881 164.283 64.8092 164.308L63.7851 164.345ZM63.473 164.368L63.7851 164.345L63.0775 164.371C62.8511 164.378 62.6249 164.39 62.399 164.406C61.6897 164.455 60.9835 164.545 60.2841 164.674C59.6892 164.749 59.0985 164.855 58.5145 164.99L58.068 165.104L56.53 165.496C53.3796 166.418 50.3917 167.821 47.6708 169.652C47.4665 169.789 47.2638 169.929 47.0626 170.071C43.2477 172.795 39.8588 176.45 37.5 180.5C36.1069 182.836 35.1956 185.179 34.3973 187.78C33.1521 192.024 32.6709 196.455 32.9754 200.867C33.0201 201.951 33.1427 202.931 33.3386 203.808C33.4346 204.506 33.5686 205.197 33.7401 205.881C34.4606 209.159 35.6663 212.311 37.3172 215.234C40.9047 221.562 46.4682 226.54 53.1551 229.404C56.6607 230.929 60.4202 231.786 64.2404 231.932C67.5036 232.103 70.7684 231.742 73.9079 230.868C73.9631 230.853 74.0183 230.838 74.0734 230.822C74.6642 230.654 75.2504 230.467 75.8313 230.263L76.8075 229.905L81.3446 232.204L92.6298 237.923L93.3503 238.289L93.1101 237.518C91.6324 232.987 90.2013 228.568 88.8169 224.293C88.6116 223.659 88.4072 223.028 88.204 222.401C92.0725 218.452 94.9386 213.632 96.5609 208.345C98.0329 203.466 98.4339 198.327 97.7364 193.278C97.1429 188.795 95.6787 184.471 93.4261 180.55C91.491 177.206 89.0037 174.215 86.0697 171.702C83.6494 169.697 80.9711 168.027 78.1065 166.734C75.9456 165.832 73.696 165.158 71.3946 164.725L68.8666 164.358L67.0338 164.282H65.9089C65.7828 164.268 65.6557 164.268 65.5297 164.282H65.9089L63.473 164.368ZM55.6685 165.951C55.4448 166.027 55.2219 166.106 55 166.187C54.0508 166.533 53.1192 166.925 52.2081 167.358C51.7502 167.576 51.2975 167.805 50.8504 168.045L52.2081 167.358L55 166.187L55.6685 165.951ZM39.3073 178.551C38.8902 179.174 38.494 179.812 38.1195 180.464C38.5055 179.815 38.9052 179.171 39.3073 178.551ZM34.8208 188.102C34.6331 188.762 34.4648 189.426 34.3161 190.095C34.4705 189.448 34.6387 188.784 34.8208 188.102ZM34.7768 207.379C35.0662 208.407 35.4044 209.418 35.7896 210.41C35.703 210.132 35.6238 209.865 35.5464 209.603C35.3207 208.84 35.1103 208.129 34.7768 207.379ZM67.7545 231.213C68.6294 231.153 69.5008 231.054 70.3662 230.917C69.383 230.989 68.51 231.102 67.7545 231.213Z" fill="#1E1D1D"/>
<path d="M74.0734 230.822C74.0183 230.838 73.9631 230.853 73.9079 230.868C78 228 78.5657 231.341 81.3446 232.204L76.8075 229.905L75.8313 230.263C75.2504 230.467 74.6642 230.654 74.0734 230.822Z" fill="#1E1D1D"/>
<path d="M65.4033 164.27H64.8092L63.0901 164.396C62.1598 164.452 61.2348 164.574 60.322 164.763C59.7308 164.846 59.1443 164.96 58.565 165.104L56.6058 165.647C53.2712 166.67 50.1249 168.229 47.2901 170.261C43.5448 172.98 40.4173 176.46 38.1135 180.474C36.7594 182.788 35.6818 185.253 34.9029 187.818C34.0845 190.606 33.6133 193.484 33.4999 196.388C33.4246 197.913 33.4499 199.442 33.5757 200.964C33.5757 201.735 33.7906 202.506 33.8917 203.289C33.9768 204.079 34.1247 204.861 34.3341 205.628C35.4708 210.7 37.777 215.436 41.0689 219.459C44.3607 223.481 48.5471 226.679 53.2941 228.797C56.7298 230.279 60.4123 231.107 64.1519 231.236C68.0143 231.449 71.8806 230.895 75.5279 229.606L76.6402 229.189H76.7919L76.9183 229.265L92.8573 237.354L92.3897 237.759C90.6833 232.475 89.0401 227.356 87.4474 222.439V222.249L87.5865 222.11C91.453 218.216 94.3234 213.446 95.9541 208.206C97.4311 203.416 97.8622 198.364 97.2181 193.392C96.6453 188.974 95.2246 184.708 93.0343 180.828C91.1462 177.495 88.7106 174.504 85.8295 171.98C83.4525 169.982 80.8216 168.308 78.0053 167C75.8744 166.081 73.6551 165.382 71.382 164.914L68.854 164.497L67.0212 164.358L65.9089 164.282H65.5297C65.6557 164.268 65.7828 164.268 65.9089 164.282H67.0338L68.8666 164.358L71.3946 164.725C73.696 165.158 75.9456 165.832 78.1065 166.734C80.9711 168.027 83.6494 169.697 86.0697 171.702C89.0037 174.215 91.491 177.206 93.4261 180.55C95.6787 184.471 97.1429 188.795 97.7364 193.278C98.4339 198.327 98.0329 203.466 96.5609 208.345C94.9195 213.694 92.0047 218.565 88.0668 222.54L88.1426 222.211C89.7353 227.128 91.3911 232.248 93.1101 237.518L93.3503 238.289L92.6298 237.923L76.6908 229.846H76.9689L75.8313 230.263C72.1138 231.571 68.1759 232.138 64.2404 231.932C60.4202 231.786 56.6607 230.929 53.1551 229.404C46.4682 226.54 40.9047 221.562 37.3172 215.234C35.6663 212.311 34.4606 209.159 33.7401 205.881C33.5427 205.094 33.395 204.296 33.2977 203.492C33.1965 202.695 33.0322 201.912 32.9943 201.128C32.6522 196.63 33.1276 192.108 34.3973 187.78C35.1956 185.179 36.3032 182.684 37.6964 180.348C40.0552 176.297 43.2477 172.795 47.0626 170.071C49.9441 168.034 53.1432 166.488 56.53 165.496L58.5145 164.99C59.0985 164.855 59.6892 164.749 60.2841 164.674C61.2063 164.503 62.1401 164.402 63.0775 164.371L64.8092 164.308C65.0061 164.281 65.2046 164.268 65.4033 164.27Z" fill="#DC2C1D"/>
<path d="M57.6471 193.745H59.9855L65.0415 186.642V181.978C65.0415 181.978 68.6565 181.75 68.2268 187.855C67.797 193.96 68.2268 192.406 68.2268 192.406C68.2268 192.406 75.8992 192.406 76.5312 193.101C77.1632 193.796 77.2012 201.203 77.2896 205.336C77.3381 206.333 77.0522 207.317 76.4774 208.132C75.9025 208.947 75.0718 209.547 74.117 209.836C73.8494 209.91 73.5731 209.949 73.2954 209.95C71.3741 209.95 61.6034 208.395 61.6034 208.395H57.5712L57.6471 193.745Z" fill="white"/>
<path d="M50.9593 192.494L52.4003 208.471H56.3945V192.823L50.9593 192.494Z" fill="white"/>
<path d="M126.934 517.762V506.954L107.557 506.815L107.393 523.159L108.593 523.247C113.94 523.589 135.795 524.094 139.384 522.982C143.379 521.743 126.934 517.762 126.934 517.762Z" fill="#DC2C1D"/>
<path d="M139.841 521.97C139.841 522.147 132.585 522.299 123.649 522.299C114.712 522.299 107.457 522.147 107.457 521.97C107.457 521.793 114.712 521.642 123.649 521.642C132.585 521.642 139.841 521.793 139.841 521.97Z" fill="#263238"/>
<path d="M127.276 519.973C127.112 519.885 127.276 519.316 127.668 518.709C128.06 518.102 128.591 517.85 128.717 517.976C128.844 518.102 128.578 518.583 128.199 519.101C127.82 519.619 127.441 520.062 127.276 519.973Z" fill="#263238"/>
<path d="M128.515 520.681C128.338 520.681 128.427 519.973 128.806 519.303C129.185 518.633 129.691 518.229 129.83 518.33C129.969 518.431 129.741 519 129.387 519.594C129.034 520.188 128.68 520.744 128.515 520.681Z" fill="#263238"/>
<path d="M113.297 521.92C113.221 521.92 112.93 521.692 112.513 521.212C112.004 520.595 111.437 520.027 110.819 519.518C110.212 519.033 109.489 518.715 108.721 518.595C108.127 518.52 107.748 518.596 107.71 518.52C107.672 518.444 108.038 518.178 108.734 518.128C109.651 518.108 110.546 518.413 111.262 518.987C111.932 519.534 112.497 520.198 112.93 520.947C113.221 521.503 113.372 521.869 113.297 521.92Z" fill="#263238"/>
<path d="M127.339 517.938C127.427 518.09 127.099 518.469 126.542 518.671C125.986 518.873 125.493 518.797 125.468 518.671C125.443 518.545 125.835 518.279 126.315 518.102C126.795 517.925 127.238 517.786 127.339 517.938Z" fill="#263238"/>
<path d="M127.035 516.889C127.035 517.079 126.529 517.23 125.872 517.243C125.215 517.256 124.697 517.104 124.709 516.927C124.722 516.75 125.24 516.586 125.872 516.573C126.504 516.56 127.01 516.712 127.035 516.889Z" fill="#263238"/>
<path d="M174.651 517.762V506.954L155.274 506.815L155.109 522.995L156.31 523.083C161.657 523.424 183.524 524.094 187.101 522.982C191.095 521.743 174.651 517.762 174.651 517.762Z" fill="#DC2C1D"/>
<path d="M187.557 521.996C187.557 522.173 180.314 522.324 171.365 522.324C162.416 522.324 155.186 522.173 155.186 521.996C155.186 521.819 162.428 521.667 171.365 521.667C180.301 521.667 187.557 521.819 187.557 521.996Z" fill="#263238"/>
<path d="M174.992 519.973C174.84 519.885 174.991 519.316 175.383 518.709C175.775 518.102 176.306 517.85 176.432 517.976C176.559 518.102 176.293 518.583 175.914 519.101C175.535 519.619 175.156 520.062 174.992 519.973Z" fill="#263238"/>
<path d="M176.23 520.681C176.066 520.681 176.141 519.973 176.533 519.303C176.925 518.633 177.418 518.229 177.557 518.33C177.696 518.431 177.456 519 177.102 519.594C176.748 520.188 176.407 520.744 176.23 520.681Z" fill="#263238"/>
<path d="M161.011 521.92C160.936 521.92 160.658 521.692 160.228 521.212C159.719 520.595 159.151 520.027 158.534 519.518C157.927 519.033 157.204 518.715 156.436 518.595C155.854 518.52 155.462 518.596 155.425 518.52C155.387 518.444 155.753 518.178 156.448 518.128C157.366 518.108 158.261 518.413 158.976 518.987C159.65 519.53 160.216 520.195 160.645 520.947C160.936 521.503 161.087 521.869 161.011 521.92Z" fill="#263238"/>
<path d="M175.055 517.938C175.144 518.09 174.815 518.469 174.259 518.671C173.703 518.873 173.21 518.797 173.185 518.671C173.159 518.545 173.551 518.279 174.032 518.102C174.512 517.925 174.954 517.786 175.055 517.938Z" fill="#263238"/>
<path d="M174.776 516.889C174.776 517.079 174.271 517.23 173.613 517.243C172.956 517.256 172.45 517.104 172.463 516.927C172.476 516.75 172.981 516.586 173.613 516.573C174.245 516.56 174.776 516.712 174.776 516.889Z" fill="#263238"/>
<path d="M246.042 196.832C245.536 196.313 244.285 196.566 244.285 196.566C244.41 195.838 244.41 195.095 244.285 194.367C244.057 193.659 242.464 193.798 242.464 193.798C242.391 193.202 242.391 192.599 242.464 192.003C242.477 191.871 242.449 191.738 242.383 191.623C242.317 191.508 242.218 191.415 242.098 191.359C241.344 191.051 240.535 190.905 239.722 190.929C238.748 190.234 242.692 184.71 244.158 182.94C245.624 181.171 245.359 179.793 244.057 179.793C243.16 179.793 238.559 185.102 237.143 186.884C235.727 188.666 231.973 193.621 231.847 189.665C231.72 185.708 230.128 182.725 229.129 182.22C228.131 181.714 227.069 182.902 227.612 184.002C228.09 185.251 228.388 186.562 228.497 187.895C228.634 188.957 228.587 190.035 228.358 191.08C227.939 193.026 227.369 194.937 226.652 196.794H226.551C226.551 196.794 198.97 223.249 196.973 225.133C195.191 226.826 159.344 223.123 152.152 222.364C149.708 222.007 147.24 221.838 144.77 221.859C141.648 221.998 141.092 222.44 137.982 222.478C130.129 222.565 122.295 223.254 114.548 224.539C111.04 225.135 107.763 226.683 105.074 229.015C102.386 231.346 100.39 234.372 99.3037 237.76C92.061 260.386 75.6543 313.941 72.7597 344.024C70.5724 347.991 68.5978 352.071 66.8442 356.247C64.8092 361.784 65.3021 361.973 65.9847 362.1C67.8301 362.441 69.9284 352.506 70.7121 354.908C71.4957 357.309 66.7305 366.751 68.6644 367.029C71.1924 367.383 73.2021 356.917 73.4423 356.083C73.6825 355.249 74.9338 355.514 74.7063 356.298C74.3397 357.41 70.7879 369.203 73.2653 369.583C74.6305 369.785 74.7821 367.295 74.7821 367.295C74.7821 367.295 77.3101 356.007 78.4604 356.235C79.6106 356.462 78.3845 363.124 77.8031 365.348C77.2217 367.573 78.0306 368.698 79.2188 368.154C80.0277 367.775 81.9617 361.013 82.4925 358.813C83.0234 356.614 84.3506 350.521 86.1328 354.048C87.9151 357.575 90.6201 359.622 91.7324 359.673C91.983 359.644 92.2193 359.541 92.4107 359.376C92.6022 359.212 92.7401 358.994 92.8067 358.751C92.8734 358.508 92.8656 358.25 92.7845 358.011C92.7035 357.772 92.5527 357.563 92.3517 357.41C91.395 356.476 90.5739 355.412 89.9122 354.25C89.3226 353.345 88.8949 352.344 88.6482 351.292C88.1389 349.196 87.8424 347.053 87.7634 344.897L87.5612 343.633C90.3925 329.615 98.5453 288.472 110.313 262.193L115.142 272.128L117.24 279.485L104.372 311.249L159.255 310.528L151.065 279.004L161.012 246.14C171.769 246.38 199.387 246.785 203.988 244.699C209.777 242.171 239.722 204.352 239.722 204.352C241.673 202.836 243.543 201.216 245.321 199.499C245.321 199.499 247.141 197.969 246.042 196.832Z" fill="#FFBE9D"/>
<path d="M101.958 287.776C103.551 282.341 111.729 255.468 111.729 255.468C111.729 255.468 115.749 277.374 114.687 280.015C113.71 282.277 112.556 284.458 111.236 286.538C101.958 300.656 103.172 307.722 103.172 307.722L159.23 306.016C159.357 298.179 154.718 279.952 153.757 277.045C152.797 274.138 155.994 264.62 155.994 264.62C155.994 264.62 162.314 258.186 162.087 254.874C161.967 251.9 161.599 248.94 160.987 246.026L195.115 247.29L194.041 224.159L145.023 219.255C143.317 224.071 127.883 221.707 127.883 221.707C111.224 222.263 110.187 225.322 103.26 230.707C96.3336 236.091 84.8691 282.303 84.8691 282.303L101.958 287.776Z" fill="#DC2C1D"/>
<path d="M135.101 282.304C134.13 282.477 133.14 282.528 132.156 282.455C130.323 282.455 127.808 282.329 125.04 282.051C122.271 281.773 119.769 281.381 117.986 281.027C117.004 280.9 116.04 280.654 115.117 280.294C116.105 280.294 117.091 280.387 118.062 280.572C119.857 280.8 122.347 281.116 125.103 281.394C127.858 281.672 130.361 281.861 132.169 281.988C133.154 282 134.136 282.106 135.101 282.304Z" fill="#263238"/>
<path d="M138.943 277.538C137.971 278.014 136.944 278.367 135.884 278.587C130.841 279.912 125.638 280.529 120.425 280.42C119.347 280.455 118.268 280.353 117.215 280.117C118.279 279.982 119.353 279.927 120.425 279.952C122.41 279.889 125.14 279.75 128.148 279.396C131.157 279.042 133.836 278.537 135.732 278.132C136.786 277.851 137.859 277.652 138.943 277.538Z" fill="#263238"/>
<path d="M157.802 256.277C157.776 257.241 157.645 258.199 157.41 259.134C157.081 260.891 156.576 263.293 155.931 265.922C155.286 268.551 154.667 270.978 154.111 272.621C153.887 273.561 153.556 274.473 153.125 275.338C153.195 274.378 153.373 273.428 153.656 272.507C154.136 270.535 154.68 268.26 155.286 265.77C155.893 263.28 156.475 261.005 156.955 259.033C157.126 258.084 157.41 257.159 157.802 256.277Z" fill="#263238"/>
<path d="M102.553 284.553C99.6289 284.101 96.743 283.429 93.92 282.543C91.0354 281.869 88.2047 280.981 85.4512 279.889C88.374 280.348 91.2593 281.019 94.0843 281.898C96.9696 282.571 99.8004 283.458 102.553 284.553Z" fill="#263238"/>
<path d="M161.594 245.749C161.117 245.831 160.63 245.831 160.153 245.749C158.833 245.613 157.536 245.303 156.298 244.826C154.23 244.049 152.348 242.848 150.772 241.3C149.196 239.752 147.961 237.892 147.146 235.839C146.246 233.58 145.862 231.149 146.021 228.722C146.078 226.721 146.676 224.773 147.753 223.085C148.511 221.948 149.642 221.112 150.951 220.721C151.301 220.625 151.663 220.578 152.025 220.582C152.278 220.582 152.405 220.582 152.405 220.582C152.405 220.582 151.874 220.582 151.027 220.924C149.826 221.367 148.807 222.199 148.132 223.287C146.413 225.992 145.933 230.934 147.766 235.548C148.619 237.723 149.954 239.677 151.672 241.261C153.079 242.558 154.699 243.601 156.462 244.346C158.116 244.999 159.837 245.47 161.594 245.749Z" fill="#263238"/>
<path d="M191.058 246.836C190.741 242.959 190.64 239.069 190.754 235.181C190.655 231.297 190.773 227.411 191.108 223.54C191.425 227.412 191.526 231.298 191.412 235.181C191.518 239.07 191.4 242.961 191.058 246.836Z" fill="#263238"/>
<path d="M144.694 220.67C144.833 217.852 145.124 214.666 145.124 214.666C145.124 214.666 152.101 213.895 152.518 206.691C152.935 199.486 152.518 182.864 152.518 182.864L139.878 176.393L125.848 187.427L128.009 223.451L140.877 224.273C141.86 224.3 142.814 223.936 143.53 223.261C144.246 222.586 144.664 221.654 144.694 220.67Z" fill="#FFBE9D"/>
<path d="M145.944 200.99C145.944 200.99 145.944 201.129 145.831 201.293C145.737 201.413 145.615 201.507 145.476 201.569C145.337 201.63 145.186 201.657 145.034 201.647C144.225 201.647 143.442 200.712 143.164 199.625C143.031 199.098 143.031 198.547 143.164 198.02C143.19 197.79 143.272 197.57 143.405 197.38C143.537 197.19 143.715 197.036 143.922 196.933C144.092 196.862 144.283 196.862 144.453 196.933C144.579 196.995 144.681 197.097 144.744 197.223C144.832 197.438 144.744 197.577 144.744 197.565C144.744 197.552 144.744 197.438 144.617 197.312C144.551 197.221 144.454 197.158 144.344 197.135C144.235 197.112 144.12 197.13 144.023 197.185C143.868 197.279 143.739 197.411 143.649 197.567C143.558 197.724 143.509 197.902 143.505 198.083C143.398 198.553 143.398 199.041 143.505 199.511C143.758 200.497 144.44 201.293 145.047 201.369C145.166 201.385 145.286 201.377 145.402 201.344C145.517 201.312 145.624 201.256 145.717 201.18C145.869 201.078 145.919 200.977 145.944 200.99Z" fill="#EB996E"/>
<path d="M156.853 178.971C155.879 175.66 152.353 174.016 149.142 173.106C144.251 171.716 138.967 171.109 134.189 172.866C129.411 174.623 123.673 177.707 123.673 182.978C120.854 182.751 119.236 185.216 118.124 188.274C117.413 190.138 116.986 192.098 116.86 194.089C116.506 200.99 114.572 210.521 110.097 215.577C107.569 218.396 104.068 220.342 102.627 223.856C101.363 226.902 102.02 230.517 100.845 233.601C99.7958 236.319 97.4827 238.253 95.7889 240.617C94.0633 243.298 93.0478 246.374 92.8377 249.556C92.6277 252.738 93.23 255.921 94.5881 258.806C95.9559 261.617 97.8818 264.12 100.248 266.162C102.615 268.205 105.372 269.745 108.353 270.687C114.257 272.483 120.553 272.545 126.491 270.864C130.948 269.799 135.105 267.737 138.651 264.835C142.279 261.872 144.771 257.746 145.704 253.156C146.602 247.998 145.161 242.753 144.086 237.621C140.724 221.404 141.685 220.557 145.932 205.503C146.033 205.237 146.083 204.959 146.159 204.694C146.235 204.428 146.273 204.302 146.324 204.1C146.444 203.505 146.508 202.899 146.513 202.292C145.893 202.523 145.22 202.572 144.572 202.433C143.925 202.294 143.331 201.973 142.86 201.508C142.388 201.013 142.059 200.399 141.907 199.731C141.756 199.063 141.788 198.367 142.001 197.716C142.299 197.005 142.743 196.364 143.305 195.834C143.867 195.305 144.534 194.9 145.262 194.645C146.665 194.064 148.169 193.76 149.547 193.116C152.467 191.725 154.489 188.843 155.867 185.822C157 183.728 157.349 181.3 156.853 178.971Z" fill="#1E1D1D"/>
<path d="M146.451 201.331C146.718 201.726 146.938 202.15 147.108 202.595C147.487 203.391 147.993 204.516 148.549 205.818L148.65 206.058H148.384L147.12 206.172C146.248 206.172 145.515 206.336 144.656 206.324C144.581 206.307 144.511 206.272 144.454 206.221C144.397 206.17 144.353 206.105 144.327 206.033C144.289 205.918 144.289 205.794 144.327 205.679C144.356 205.509 144.394 205.34 144.441 205.174L144.668 204.276C144.783 203.677 144.961 203.093 145.199 202.532C145.176 203.142 145.087 203.748 144.934 204.339L144.757 205.237C144.694 205.54 144.58 206.008 144.757 205.97C145.389 205.97 146.286 205.831 147.12 205.78L148.384 205.667L148.22 205.945C147.677 204.681 147.222 203.492 146.956 202.671C146.723 202.251 146.553 201.8 146.451 201.331Z" fill="#DC2C1D"/>
<path d="M103.172 307.722L159.231 306.016L183.626 401.245L179.139 510.48H149.498L153.126 403.571L131.448 337.274L134.785 514.715L104.828 515.157L101.681 348.372C101.542 343.733 100.025 333.28 100.594 328.679L103.172 307.722Z" fill="#263238"/>
<path d="M138.904 338.628C137.987 338.685 137.066 338.63 136.162 338.463C134.468 338.261 132.155 337.907 129.614 337.401C127.073 336.896 124.798 336.314 123.155 335.847C122.277 335.654 121.427 335.348 120.627 334.937C120.627 334.747 124.748 335.733 129.804 336.757C134.86 337.781 138.93 338.438 138.904 338.628Z" fill="white" fill-opacity="0.5"/>
<path d="M178.835 504.489C178.835 504.666 172.123 504.817 163.844 504.817C155.564 504.817 148.84 504.666 148.84 504.489C148.84 504.312 155.552 504.16 163.844 504.16C172.135 504.16 178.835 504.299 178.835 504.489Z" fill="white" fill-opacity="0.5"/>
<path d="M134.518 510.101C134.518 510.291 127.996 510.43 119.957 510.43C111.918 510.43 105.408 510.291 105.408 510.101C105.408 509.912 111.93 509.772 119.957 509.772C127.983 509.772 134.518 509.924 134.518 510.101Z" fill="white" fill-opacity="0.5"/>
<path d="M130.651 509.646C130.474 509.646 129.69 470.88 128.894 423.062C128.098 375.245 127.63 336.453 127.794 336.453C127.959 336.453 128.768 375.207 129.551 423.05C130.335 470.892 130.841 509.646 130.651 509.646Z" fill="white" fill-opacity="0.5"/>
<path d="M174.854 504.49C174.84 504.317 174.84 504.144 174.854 503.971V502.454C174.854 501.089 174.955 499.13 175.031 496.64C175.208 491.584 175.461 484.24 175.777 475.241C176.459 457.14 177.42 432.189 178.469 404.646C178.469 404.381 178.469 404.128 178.469 403.9V403.989C171.833 377.445 165.829 353.353 161.468 335.922L156.412 315.307C155.831 312.892 155.388 311.009 155.072 309.694C154.921 309.075 154.82 308.595 154.731 308.228C154.682 308.064 154.652 307.894 154.643 307.723C154.708 307.882 154.759 308.047 154.794 308.216C154.895 308.57 155.022 309.05 155.199 309.657C155.54 310.921 156.033 312.842 156.665 315.243C157.929 320.122 159.711 327.15 161.936 335.809C166.335 353.227 172.402 377.255 179.126 403.837V403.926C179.126 404.153 179.126 404.419 179.126 404.671C178.001 432.214 176.977 457.153 176.232 475.253C175.84 484.266 175.511 491.559 175.284 496.64C175.157 499.168 175.056 501.089 174.993 502.454C174.993 503.099 174.917 503.605 174.904 503.971C174.906 504.145 174.889 504.319 174.854 504.49Z" fill="white" fill-opacity="0.5"/>
<path d="M165.184 401.676C163.055 402.376 160.862 402.863 158.637 403.129C155.906 403.597 153.581 403.926 152.532 403.976V403.723C152.873 403.825 153.05 403.888 153.05 403.938C153.05 403.989 152.835 403.938 152.481 403.938H151.723L152.481 403.711C153.467 403.42 155.793 402.94 158.523 402.447C160.713 401.972 162.944 401.713 165.184 401.676Z" fill="white" fill-opacity="0.5"/>
<path d="M164.665 405.304C162.694 405.394 160.718 405.305 158.762 405.038C156.788 404.998 154.821 404.782 152.885 404.393C156.835 404.071 160.811 404.378 164.665 405.304Z" fill="white" fill-opacity="0.5"/>
<path opacity="0.2" d="M102.932 309.732C103.596 310.584 104.432 311.287 105.386 311.795C106.34 312.302 107.39 312.603 108.468 312.677C110.726 312.944 113.009 312.902 115.256 312.55C129.728 310.945 145.061 309.466 159.23 306.016C140.89 307.039 121.512 306.698 103.172 307.722L102.982 309.289" fill="black"/>
<g opacity="0.2">
<path d="M121.828 335.581L132.168 375.7L131.447 337.275L121.828 335.581Z" fill="black"/>
</g>
<path d="M124.551 135.475L124.402 135.252H124.134H117.932C114.404 135.252 111.5 132.347 111.5 128.818V99.9341C111.5 96.4042 114.404 93.5 117.932 93.5H185.22C188.75 93.5 191.652 96.3793 191.652 99.9341V128.818C191.652 132.347 188.749 135.252 185.22 135.252H137.217H136.806L136.726 135.655L133.964 149.636L124.551 135.475Z" fill="#1E1D1D" stroke="#DC2C1D" stroke-miterlimit="10"/>
<path opacity="0.6" d="M179 106H124V107H179V106Z" fill="white"/>
<path opacity="0.6" d="M179 114H124V115H179V114Z" fill="white"/>
<path opacity="0.6" d="M179 123H124V124H179V123Z" fill="white"/>
<path d="M38.8523 446.573H34.3594V490.472H38.8523V446.573Z" fill="#27481F"/>
<path d="M37.7251 443.612C37.6746 446.794 37.3717 449.47 37.1193 451.187C36.9342 452.517 36.7659 453.291 36.7659 453.291C24.5155 449.319 18.8952 441.71 16.5562 434.052C16.3374 433.362 16.1523 432.655 16.0009 431.948C13.5272 421.293 16.8422 411.126 16.8422 411.126C22.4626 412.304 26.6022 414.745 29.6648 417.893C30.1864 418.431 30.6744 418.987 31.1456 419.559C36.7828 426.662 37.8597 436.425 37.7251 443.612Z" fill="#49883A"/>
<path d="M53.6098 422.386C53.3742 430.904 50.0592 440.835 39.7776 450.379C38.9867 451.103 38.1622 451.843 37.2871 452.567C37.1862 452.651 37.102 452.718 37.0011 452.803C37.0011 452.803 35.3015 450.311 33.5346 446.238C33.5178 446.171 33.4841 446.12 33.4673 446.07C32.8615 444.639 32.2389 443.006 31.6836 441.222C31.2292 439.774 30.8254 438.226 30.5057 436.593C29.2773 430.315 29.2604 422.875 32.6764 415.519C35.2342 409.964 39.7608 404.477 47.1312 399.545C47.1312 399.528 53.98 409.308 53.6098 422.386Z" fill="#49883A"/>
<path opacity="0.5" d="M39.7607 450.379C38.9698 451.103 38.1452 451.843 37.2702 452.567C37.1692 452.651 37.0851 452.719 36.9841 452.803C36.9841 452.803 35.2846 450.312 33.5177 446.238C33.5009 446.188 33.4672 446.12 33.4504 446.07C33.2989 445.716 33.1475 445.363 33.0129 444.993C32.9624 444.858 32.8951 444.706 32.8446 444.555C32.7436 444.302 32.6595 444.067 32.5585 443.814C32.4912 443.612 32.4071 443.41 32.3398 443.191C32.2556 442.973 32.1883 442.771 32.1042 442.535C31.9527 442.097 31.8181 441.66 31.6835 441.205C31.2292 439.758 30.8253 438.209 30.5056 436.576C29.4959 431.459 29.3108 425.568 31.1282 419.576C30.6738 419.003 30.1859 418.448 29.6474 417.909C28.4695 421.023 26.5511 428.16 26.3324 434.59C23.5053 433.479 20.0894 432.57 16.0003 431.947C16.1518 432.654 16.3369 433.344 16.5556 434.051C14.8056 433.631 12.9209 433.277 10.8848 432.974C12.5002 438.462 18.9619 455.967 35.823 456.237C36.2437 456.237 36.6813 456.237 37.1188 456.22C37.8087 456.203 38.5323 456.136 39.2559 456.051C39.2559 456.068 40.0131 453.678 39.7607 450.379Z" fill="#27481F"/>
<path d="M37.2365 455.311C37.2365 455.328 37.2365 455.344 37.2365 455.361C37.2197 455.462 37.2197 455.563 37.2028 455.664C37.2028 455.715 37.186 455.765 37.186 455.799C37.1692 455.883 37.1692 455.95 37.1523 456.035C37.1187 456.27 37.085 456.489 37.0514 456.691C37.0346 456.826 37.0009 456.96 36.9841 457.078C36.7653 458.206 36.5129 458.879 36.5129 458.879C35.3181 458.963 34.1739 458.947 33.0633 458.879C13.1059 457.533 9 432.722 9 432.722C9.63944 432.806 10.2621 432.89 10.8847 432.991C12.9208 433.294 14.8055 433.664 16.5555 434.068C23.7745 435.785 28.5367 438.377 31.6666 441.239C32.6089 442.097 33.3998 442.989 34.0561 443.882C35.9071 446.373 36.7653 448.931 37.1019 451.22C37.1692 451.692 37.2196 452.146 37.2533 452.601C37.3374 453.577 37.3038 454.486 37.2365 455.311Z" fill="#49883A"/>
<path opacity="0.38" d="M53.61 422.386C53.4922 426.644 52.6003 431.256 50.4464 436.003C48.3093 440.75 44.9102 445.614 39.761 450.378C39.7441 450.395 39.7105 450.412 39.6936 450.429C39.3908 450.715 39.071 450.984 38.7681 451.27C38.6672 451.354 38.583 451.438 38.4821 451.523C38.095 451.876 37.6912 452.213 37.2705 452.566C37.2368 452.112 37.1864 451.657 37.1191 451.186C36.7825 448.897 35.9243 446.338 34.0733 443.847C33.417 442.955 32.6261 442.063 31.6838 441.204C31.2294 439.757 30.8256 438.208 30.5059 436.575C31.6501 437.249 32.6598 437.939 33.5348 438.68C34.1574 439.201 34.7127 439.723 35.2344 440.245C37.8595 433.394 43.1601 426.341 53.61 422.386Z" fill="#27481F"/>
<path opacity="0.2" d="M37.2366 455.31C37.2366 455.327 37.2366 455.344 37.2366 455.361C37.2198 455.462 37.2198 455.563 37.203 455.664C37.203 455.714 37.1861 455.765 37.1861 455.798C37.1693 455.882 37.1693 455.95 37.1525 456.034C37.1188 456.27 37.0852 456.488 37.0515 456.69C37.0179 456.825 37.001 456.96 36.9842 457.077C36.7655 458.205 36.513 458.879 36.513 458.879C35.3183 458.963 34.174 458.946 33.0634 458.879C32.8783 457.498 32.3398 452.381 33.5346 446.254C33.686 445.48 33.8711 444.672 34.0731 443.881C35.9241 446.372 36.7823 448.931 37.1188 451.22C37.1862 451.691 37.2366 452.146 37.2703 452.6C37.3376 453.576 37.3039 454.485 37.2366 455.31Z" fill="#27481F"/>
<path d="M56.4362 484.868L51.5057 517.17C50.9504 520.772 47.8542 523.431 44.2194 523.431H29.3945C26.1636 523.431 23.3702 521.344 22.3942 518.365C22.2596 517.977 22.1755 517.573 22.1082 517.17L17.1777 484.868H56.4362Z" fill="#263238"/>
<path d="M35.9905 458.914C35.9905 458.914 30.5889 426.832 64.9674 422.22C64.9674 422.22 67.1213 457.366 35.9905 458.914Z" fill="#49883A"/>
<path d="M56.4365 484.868L51.506 517.17C50.9507 520.772 47.8545 523.431 44.2197 523.431H29.3947C26.1639 523.431 23.3705 521.344 22.3945 518.365C41.6283 515.284 46.7943 495.473 47.8376 484.868H56.4365Z" fill="#1D1C1C"/>
</svg>
