<svg width="250" height="80" viewBox="0 0 250 80" fill="none" xmlns="http://www.w3.org/2000/svg">
<circle cx="40" cy="40" r="40" fill="#D9D9D9" fill-opacity="0.02"/>
<circle cx="40.0011" cy="39.9992" r="31.8644" fill="#D9D9D9" fill-opacity="0.03"/>
<circle cx="40.4068" cy="40.4087" r="24.4068" fill="#D9D9D9" fill-opacity="0.05"/>
<mask id="mask0_112_4" style="mask-type:alpha" maskUnits="userSpaceOnUse" x="16" y="16" width="49" height="49">
<circle cx="40.4073" cy="40.4073" r="24.4073" fill="#D9D9D9"/>
</mask>
<g mask="url(#mask0_112_4)">
<path d="M15.4121 31.4949C15.6358 31.6068 15.7477 31.6068 15.8595 31.7186C16.9781 32.5016 18.0966 33.3964 19.327 33.9557C19.7745 34.1794 20.2219 34.2913 20.7812 34.4031C23.1301 34.6268 25.4791 35.1861 27.8281 35.6335C28.2755 35.7454 28.7229 35.7454 29.1703 35.7454C29.7296 35.7454 30.177 35.5217 30.4007 34.9624C30.6244 34.4031 30.2889 33.9557 29.8415 33.6202C28.8348 32.7253 27.6043 32.7253 26.3739 32.8372C26.0384 32.8372 25.7028 32.949 25.3672 32.949C26.0384 32.166 26.9332 31.6068 27.9399 31.6068C29.0585 31.6068 29.9533 31.2712 30.7363 30.4882C31.8549 29.3696 33.0853 29.2578 34.5394 29.8171C35.9935 30.3763 37.3358 31.0475 38.678 31.7186C39.5729 32.2779 40.3559 32.8372 41.027 33.732C41.3626 34.2913 41.9218 34.7387 42.7048 34.7387C43.376 34.6268 43.4878 34.4031 43.1522 33.9557C42.0337 32.5016 40.9151 31.1593 39.6847 29.9289C39.1255 29.2578 38.5662 28.6985 38.0069 28.0274C37.6713 27.6918 37.3358 27.3562 36.8883 27.2444C34.8749 26.6851 32.7497 26.1258 30.7363 25.5666C28.7229 25.0073 26.7095 25.3429 24.5842 25.6784C22.459 26.1258 20.3337 25.9021 18.2085 25.1191L15.4121 31.4949ZM32.0786 30.8238C31.6311 30.7119 31.4074 31.0475 31.1837 31.2712C30.8482 31.4949 30.96 31.7186 31.2956 31.8305C31.6311 31.9423 32.0786 32.166 32.4141 32.3897C33.7564 32.949 34.7631 33.9557 35.7698 34.9624C35.8816 35.1861 36.2172 35.4098 36.4409 35.298C36.6646 35.0743 36.4409 34.7387 36.3291 34.515C35.3224 33.1727 34.2038 32.0542 32.7497 31.1593C32.4141 31.0475 32.1904 30.9356 32.0786 30.8238ZM33.0853 30.4882C34.2038 31.2712 35.2105 32.0542 36.1054 33.0609C36.6646 33.732 37.2239 34.4031 37.7832 34.9624C38.0069 35.1861 38.2306 35.5217 38.5662 35.298C38.7899 35.0743 38.5662 34.7387 38.3425 34.515C37.5595 33.2846 36.5528 32.2779 35.5461 31.383C34.7631 30.8238 33.9801 30.4882 33.0853 30.4882ZM37.5595 32.2779C38.3425 33.1727 39.1255 34.1794 39.9084 35.0743C40.0203 35.298 40.244 35.5217 40.4677 35.298C40.6914 35.1861 40.4677 34.8506 40.4677 34.7387C40.3559 34.515 40.244 34.4031 40.1322 34.1794C39.5729 33.1727 38.5662 32.7253 37.5595 32.2779Z" fill="#DE2C1B"/>
<path d="M67.424 47.6C65.2988 45.1392 62.5024 43.6851 59.4823 42.6784C58.8112 42.4547 58.14 42.4547 57.4689 42.4547C54.6725 42.4547 51.8761 42.1191 49.0798 41.8954C48.0731 41.7835 47.0664 41.6717 46.1715 41.6717C45.5004 41.5598 44.8292 41.7835 44.1581 42.1191C43.0396 42.7902 42.9277 43.7969 43.9344 44.6918C45.1648 45.8103 46.6189 46.034 48.1849 45.8103C48.9679 45.6985 49.8627 45.4748 50.6457 45.3629C49.8627 46.2577 48.9679 47.1526 47.7375 47.2644C45.8359 47.3763 44.27 48.2711 43.0396 49.7253C41.8092 51.1794 40.4669 51.4031 38.7891 50.9557C35.8808 50.2845 33.0844 49.3897 30.3999 48.0474C29.6169 47.7119 29.1695 47.0407 28.4984 46.4815C28.0509 46.034 27.6035 45.5866 26.9324 45.251C26.2613 44.9155 25.5901 45.0273 25.0308 45.251C24.4716 45.4748 24.4716 45.8103 24.8071 46.2577C25.9257 47.6 27.1561 48.6067 28.3865 49.8371C29.9525 51.2912 31.5185 52.5216 33.0844 53.9758C34.0911 54.9825 35.3215 55.318 36.6638 55.5417C39.0128 55.8773 41.3617 56.2129 43.5988 56.6603C45.7241 57.1077 47.7375 56.7722 49.8627 56.4366C52.0998 56.101 54.1132 55.0943 56.3504 54.8706C57.4689 54.7588 58.5875 54.7588 59.706 54.8706C59.9297 54.8706 60.2653 54.9825 60.3772 54.9825L67.424 47.6ZM41.6973 49.3897C42.0329 49.5016 42.1447 49.3897 42.3684 49.2778C42.5921 49.0541 42.8159 48.8304 43.0396 48.6067C43.2633 48.383 43.5988 48.2711 43.487 48.0474C43.3751 47.7119 43.0396 47.8237 42.8158 47.7119C40.355 47.0407 38.1179 46.034 36.3282 44.2443C35.9927 43.9088 35.5453 43.5732 34.986 43.3495C34.6504 43.2377 34.4267 43.3495 34.5386 43.7969C34.5386 44.1325 34.8741 44.4681 35.0978 44.6918C36.6638 46.4815 38.5653 47.8237 40.6906 48.9423C40.9143 49.0541 41.3617 49.2778 41.6973 49.3897ZM40.9143 50.2845C40.8025 50.0608 40.6906 50.0608 40.5787 50.0608C39.0128 49.3897 37.6705 48.4949 36.3282 47.4882C35.0978 46.4815 33.9793 45.251 32.7489 44.1325C32.4133 43.7969 31.854 43.2377 31.4066 43.5732C30.9592 44.0206 31.5185 44.5799 31.7422 44.9155C33.3081 46.817 35.0978 48.383 37.2231 49.5016C38.4535 50.1727 39.6839 50.2845 40.9143 50.2845ZM33.9793 48.4949C32.637 47.1526 31.2947 45.8103 29.9525 44.4681C29.7288 44.2443 29.3932 44.0206 29.0576 43.7969C28.6102 43.5732 28.3865 43.7969 28.4984 44.2443C28.6102 44.8036 28.9458 45.1392 29.1695 45.5866C30.2881 47.2644 32.0777 47.8237 33.9793 48.4949Z" fill="white"/>
</g>
<path d="M97.9 47C97.46 47 97.12 46.8867 96.88 46.66C96.6533 46.42 96.54 46.08 96.54 45.64V34.26C96.54 33.82 96.6533 33.4867 96.88 33.26C97.12 33.02 97.46 32.9 97.9 32.9H105.04C105.373 32.9 105.627 32.9867 105.8 33.16C105.987 33.3333 106.08 33.58 106.08 33.9C106.08 34.2333 105.987 34.4933 105.8 34.68C105.627 34.8533 105.373 34.94 105.04 34.94H99V38.82H104.6C104.947 38.82 105.207 38.9067 105.38 39.08C105.553 39.2533 105.64 39.5067 105.64 39.84C105.64 40.1733 105.553 40.4267 105.38 40.6C105.207 40.7733 104.947 40.86 104.6 40.86H99V44.96H105.04C105.373 44.96 105.627 45.0467 105.8 45.22C105.987 45.3933 106.08 45.6467 106.08 45.98C106.08 46.3133 105.987 46.5667 105.8 46.74C105.627 46.9133 105.373 47 105.04 47H97.9ZM109.514 47.16C109.114 47.16 108.807 47.0533 108.594 46.84C108.38 46.6133 108.274 46.2933 108.274 45.88V38.32C108.274 37.9067 108.38 37.5933 108.594 37.38C108.807 37.1667 109.107 37.06 109.494 37.06C109.88 37.06 110.18 37.1667 110.394 37.38C110.607 37.5933 110.714 37.9067 110.714 38.32V39.78L110.494 39.18C110.76 38.5133 111.174 37.9867 111.734 37.6C112.294 37.2133 112.96 37.02 113.734 37.02C114.52 37.02 115.167 37.2067 115.674 37.58C116.18 37.9533 116.534 38.5267 116.734 39.3H116.454C116.72 38.5933 117.16 38.04 117.774 37.64C118.387 37.2267 119.094 37.02 119.894 37.02C120.64 37.02 121.254 37.1667 121.734 37.46C122.227 37.7533 122.594 38.2 122.834 38.8C123.074 39.3867 123.194 40.1333 123.194 41.04V45.88C123.194 46.2933 123.08 46.6133 122.854 46.84C122.64 47.0533 122.334 47.16 121.934 47.16C121.534 47.16 121.227 47.0533 121.014 46.84C120.8 46.6133 120.694 46.2933 120.694 45.88V41.14C120.694 40.3933 120.567 39.8467 120.314 39.5C120.074 39.1533 119.66 38.98 119.074 38.98C118.42 38.98 117.907 39.2133 117.534 39.68C117.16 40.1333 116.974 40.7667 116.974 41.58V45.88C116.974 46.2933 116.867 46.6133 116.654 46.84C116.44 47.0533 116.134 47.16 115.734 47.16C115.334 47.16 115.02 47.0533 114.794 46.84C114.58 46.6133 114.474 46.2933 114.474 45.88V41.14C114.474 40.3933 114.347 39.8467 114.094 39.5C113.854 39.1533 113.447 38.98 112.874 38.98C112.22 38.98 111.707 39.2133 111.334 39.68C110.96 40.1333 110.774 40.7667 110.774 41.58V45.88C110.774 46.7333 110.354 47.16 109.514 47.16ZM130.233 47.2C129.219 47.2 128.339 46.9933 127.593 46.58C126.846 46.1667 126.266 45.58 125.853 44.82C125.439 44.0467 125.233 43.14 125.233 42.1C125.233 41.3133 125.346 40.6133 125.573 40C125.813 39.3733 126.153 38.84 126.593 38.4C127.033 37.9467 127.559 37.6067 128.173 37.38C128.786 37.14 129.473 37.02 130.233 37.02C131.246 37.02 132.126 37.2267 132.873 37.64C133.619 38.0533 134.199 38.64 134.613 39.4C135.026 40.16 135.233 41.06 135.233 42.1C135.233 42.8867 135.113 43.5933 134.873 44.22C134.646 44.8467 134.313 45.3867 133.873 45.84C133.433 46.28 132.906 46.62 132.293 46.86C131.679 47.0867 130.993 47.2 130.233 47.2ZM130.233 45.3C130.726 45.3 131.159 45.18 131.533 44.94C131.906 44.7 132.193 44.3467 132.393 43.88C132.606 43.4 132.713 42.8067 132.713 42.1C132.713 41.0333 132.486 40.24 132.033 39.72C131.579 39.1867 130.979 38.92 130.233 38.92C129.739 38.92 129.306 39.04 128.933 39.28C128.559 39.5067 128.266 39.86 128.053 40.34C127.853 40.8067 127.753 41.3933 127.753 42.1C127.753 43.1533 127.979 43.9533 128.433 44.5C128.886 45.0333 129.486 45.3 130.233 45.3ZM141.678 47.2C140.812 47.2 140.085 47.0533 139.498 46.76C138.925 46.4667 138.498 46.04 138.218 45.48C137.938 44.9067 137.798 44.2 137.798 43.36V39.1H136.758C136.438 39.1 136.192 39.02 136.018 38.86C135.845 38.6867 135.758 38.4533 135.758 38.16C135.758 37.8533 135.845 37.62 136.018 37.46C136.192 37.3 136.438 37.22 136.758 37.22H137.798V35.4C137.798 34.9867 137.905 34.6733 138.118 34.46C138.345 34.2467 138.658 34.14 139.058 34.14C139.458 34.14 139.765 34.2467 139.978 34.46C140.192 34.6733 140.298 34.9867 140.298 35.4V37.22H142.418C142.738 37.22 142.985 37.3 143.158 37.46C143.332 37.62 143.418 37.8533 143.418 38.16C143.418 38.4533 143.332 38.6867 143.158 38.86C142.985 39.02 142.738 39.1 142.418 39.1H140.298V43.22C140.298 43.86 140.438 44.34 140.718 44.66C140.998 44.98 141.452 45.14 142.078 45.14C142.305 45.14 142.505 45.12 142.678 45.08C142.852 45.04 143.005 45.0133 143.138 45C143.298 44.9867 143.432 45.04 143.538 45.16C143.645 45.2667 143.698 45.4933 143.698 45.84C143.698 46.1067 143.652 46.3467 143.558 46.56C143.478 46.76 143.325 46.9 143.098 46.98C142.925 47.0333 142.698 47.08 142.418 47.12C142.138 47.1733 141.892 47.2 141.678 47.2ZM146.368 47.14C145.968 47.14 145.661 47.02 145.448 46.78C145.235 46.54 145.128 46.2067 145.128 45.78V38.44C145.128 38 145.235 37.6667 145.448 37.44C145.661 37.2 145.968 37.08 146.368 37.08C146.768 37.08 147.075 37.2 147.288 37.44C147.515 37.6667 147.628 38 147.628 38.44V45.78C147.628 46.2067 147.521 46.54 147.308 46.78C147.095 47.02 146.781 47.14 146.368 47.14ZM146.368 35.22C145.901 35.22 145.535 35.1067 145.268 34.88C145.015 34.64 144.888 34.3133 144.888 33.9C144.888 33.4733 145.015 33.1467 145.268 32.92C145.535 32.6933 145.901 32.58 146.368 32.58C146.848 32.58 147.215 32.6933 147.468 32.92C147.721 33.1467 147.848 33.4733 147.848 33.9C147.848 34.3133 147.721 34.64 147.468 34.88C147.215 35.1067 146.848 35.22 146.368 35.22ZM154.686 47.2C153.672 47.2 152.792 46.9933 152.046 46.58C151.299 46.1667 150.719 45.58 150.306 44.82C149.892 44.0467 149.686 43.14 149.686 42.1C149.686 41.3133 149.799 40.6133 150.026 40C150.266 39.3733 150.606 38.84 151.046 38.4C151.486 37.9467 152.012 37.6067 152.626 37.38C153.239 37.14 153.926 37.02 154.686 37.02C155.699 37.02 156.579 37.2267 157.326 37.64C158.072 38.0533 158.652 38.64 159.066 39.4C159.479 40.16 159.686 41.06 159.686 42.1C159.686 42.8867 159.566 43.5933 159.326 44.22C159.099 44.8467 158.766 45.3867 158.326 45.84C157.886 46.28 157.359 46.62 156.746 46.86C156.132 47.0867 155.446 47.2 154.686 47.2ZM154.686 45.3C155.179 45.3 155.612 45.18 155.986 44.94C156.359 44.7 156.646 44.3467 156.846 43.88C157.059 43.4 157.166 42.8067 157.166 42.1C157.166 41.0333 156.939 40.24 156.486 39.72C156.032 39.1867 155.432 38.92 154.686 38.92C154.192 38.92 153.759 39.04 153.386 39.28C153.012 39.5067 152.719 39.86 152.506 40.34C152.306 40.8067 152.206 41.3933 152.206 42.1C152.206 43.1533 152.432 43.9533 152.886 44.5C153.339 45.0333 153.939 45.3 154.686 45.3ZM162.989 47.16C162.589 47.16 162.283 47.0533 162.069 46.84C161.856 46.6133 161.749 46.2933 161.749 45.88V38.32C161.749 37.9067 161.856 37.5933 162.069 37.38C162.283 37.1667 162.583 37.06 162.969 37.06C163.356 37.06 163.656 37.1667 163.869 37.38C164.083 37.5933 164.189 37.9067 164.189 38.32V39.68L163.969 39.18C164.263 38.4733 164.716 37.94 165.329 37.58C165.956 37.2067 166.663 37.02 167.449 37.02C168.236 37.02 168.883 37.1667 169.389 37.46C169.896 37.7533 170.276 38.2 170.529 38.8C170.783 39.3867 170.909 40.1333 170.909 41.04V45.88C170.909 46.2933 170.803 46.6133 170.589 46.84C170.376 47.0533 170.069 47.16 169.669 47.16C169.269 47.16 168.956 47.0533 168.729 46.84C168.516 46.6133 168.409 46.2933 168.409 45.88V41.16C168.409 40.4 168.263 39.8467 167.969 39.5C167.689 39.1533 167.249 38.98 166.649 38.98C165.916 38.98 165.329 39.2133 164.889 39.68C164.463 40.1333 164.249 40.74 164.249 41.5V45.88C164.249 46.7333 163.829 47.16 162.989 47.16ZM176.668 47.2C175.962 47.2 175.328 47.0667 174.768 46.8C174.222 46.52 173.788 46.1467 173.468 45.68C173.162 45.2133 173.008 44.6867 173.008 44.1C173.008 43.38 173.195 42.8133 173.568 42.4C173.942 41.9733 174.548 41.6667 175.388 41.48C176.228 41.2933 177.355 41.2 178.768 41.2H179.768V42.64H178.788C177.962 42.64 177.302 42.68 176.808 42.76C176.315 42.84 175.962 42.98 175.748 43.18C175.548 43.3667 175.448 43.6333 175.448 43.98C175.448 44.42 175.602 44.78 175.908 45.06C176.215 45.34 176.642 45.48 177.188 45.48C177.628 45.48 178.015 45.38 178.348 45.18C178.695 44.9667 178.968 44.68 179.168 44.32C179.368 43.96 179.468 43.5467 179.468 43.08V40.78C179.468 40.1133 179.322 39.6333 179.028 39.34C178.735 39.0467 178.242 38.9 177.548 38.9C177.162 38.9 176.742 38.9467 176.288 39.04C175.848 39.1333 175.382 39.2933 174.888 39.52C174.635 39.64 174.408 39.6733 174.208 39.62C174.022 39.5667 173.875 39.46 173.768 39.3C173.662 39.1267 173.608 38.94 173.608 38.74C173.608 38.54 173.662 38.3467 173.768 38.16C173.875 37.96 174.055 37.8133 174.308 37.72C174.922 37.4667 175.508 37.2867 176.068 37.18C176.642 37.0733 177.162 37.02 177.628 37.02C178.588 37.02 179.375 37.1667 179.988 37.46C180.615 37.7533 181.082 38.2 181.388 38.8C181.695 39.3867 181.848 40.1467 181.848 41.08V45.88C181.848 46.2933 181.748 46.6133 181.548 46.84C181.348 47.0533 181.062 47.16 180.688 47.16C180.315 47.16 180.022 47.0533 179.808 46.84C179.608 46.6133 179.508 46.2933 179.508 45.88V44.92H179.668C179.575 45.3867 179.388 45.7933 179.108 46.14C178.842 46.4733 178.502 46.7333 178.088 46.92C177.675 47.1067 177.202 47.2 176.668 47.2ZM187.726 47.2C186.619 47.2 185.786 46.8867 185.226 46.26C184.666 45.62 184.386 44.6867 184.386 43.46V34C184.386 33.5867 184.493 33.2733 184.706 33.06C184.919 32.8467 185.226 32.74 185.626 32.74C186.026 32.74 186.333 32.8467 186.546 33.06C186.773 33.2733 186.886 33.5867 186.886 34V43.34C186.886 43.9533 187.013 44.4067 187.266 44.7C187.533 44.9933 187.906 45.14 188.386 45.14C188.493 45.14 188.593 45.14 188.686 45.14C188.779 45.1267 188.873 45.1133 188.966 45.1C189.153 45.0733 189.279 45.1267 189.346 45.26C189.413 45.38 189.446 45.6333 189.446 46.02C189.446 46.3533 189.379 46.6133 189.246 46.8C189.113 46.9867 188.893 47.1 188.586 47.14C188.453 47.1533 188.313 47.1667 188.166 47.18C188.019 47.1933 187.873 47.2 187.726 47.2ZM201.122 47.16C200.709 47.16 200.389 47.0467 200.162 46.82C199.949 46.58 199.842 46.2533 199.842 45.84V35.04H195.942C195.596 35.04 195.322 34.9467 195.122 34.76C194.936 34.56 194.842 34.2933 194.842 33.96C194.842 33.6133 194.936 33.3533 195.122 33.18C195.322 32.9933 195.596 32.9 195.942 32.9H206.302C206.649 32.9 206.916 32.9933 207.102 33.18C207.302 33.3533 207.402 33.6133 207.402 33.96C207.402 34.2933 207.302 34.56 207.102 34.76C206.916 34.9467 206.649 35.04 206.302 35.04H202.402V45.84C202.402 46.2533 202.296 46.58 202.082 46.82C201.869 47.0467 201.549 47.16 201.122 47.16ZM211.522 47.2C210.508 47.2 209.628 46.9933 208.882 46.58C208.135 46.1667 207.555 45.58 207.142 44.82C206.728 44.0467 206.522 43.14 206.522 42.1C206.522 41.3133 206.635 40.6133 206.862 40C207.102 39.3733 207.442 38.84 207.882 38.4C208.322 37.9467 208.848 37.6067 209.462 37.38C210.075 37.14 210.762 37.02 211.522 37.02C212.535 37.02 213.415 37.2267 214.162 37.64C214.908 38.0533 215.488 38.64 215.902 39.4C216.315 40.16 216.522 41.06 216.522 42.1C216.522 42.8867 216.402 43.5933 216.162 44.22C215.935 44.8467 215.602 45.3867 215.162 45.84C214.722 46.28 214.195 46.62 213.582 46.86C212.968 47.0867 212.282 47.2 211.522 47.2ZM211.522 45.3C212.015 45.3 212.448 45.18 212.822 44.94C213.195 44.7 213.482 44.3467 213.682 43.88C213.895 43.4 214.002 42.8067 214.002 42.1C214.002 41.0333 213.775 40.24 213.322 39.72C212.868 39.1867 212.268 38.92 211.522 38.92C211.028 38.92 210.595 39.04 210.222 39.28C209.848 39.5067 209.555 39.86 209.342 40.34C209.142 40.8067 209.042 41.3933 209.042 42.1C209.042 43.1533 209.268 43.9533 209.722 44.5C210.175 45.0333 210.775 45.3 211.522 45.3ZM222.125 47.2C221.312 47.2 220.638 47.0533 220.105 46.76C219.572 46.4533 219.172 46 218.905 45.4C218.652 44.8 218.525 44.0533 218.525 43.16V38.32C218.525 37.8933 218.632 37.58 218.845 37.38C219.058 37.1667 219.365 37.06 219.765 37.06C220.165 37.06 220.472 37.1667 220.685 37.38C220.912 37.58 221.025 37.8933 221.025 38.32V43.2C221.025 43.8933 221.165 44.4067 221.445 44.74C221.725 45.0733 222.172 45.24 222.785 45.24C223.452 45.24 223.998 45.0133 224.425 44.56C224.852 44.0933 225.065 43.48 225.065 42.72V38.32C225.065 37.8933 225.172 37.58 225.385 37.38C225.598 37.1667 225.905 37.06 226.305 37.06C226.705 37.06 227.012 37.1667 227.225 37.38C227.452 37.58 227.565 37.8933 227.565 38.32V45.88C227.565 46.7333 227.158 47.16 226.345 47.16C225.958 47.16 225.658 47.0533 225.445 46.84C225.232 46.6133 225.125 46.2933 225.125 45.88V44.36L225.405 44.96C225.125 45.68 224.698 46.2333 224.125 46.62C223.565 47.0067 222.898 47.2 222.125 47.2ZM234.687 47.2C233.661 47.2 232.767 46.9933 232.007 46.58C231.247 46.1533 230.661 45.5533 230.247 44.78C229.834 44.0067 229.627 43.1 229.627 42.06C229.627 41.2733 229.741 40.5733 229.967 39.96C230.207 39.3333 230.547 38.8067 230.987 38.38C231.427 37.94 231.961 37.6067 232.587 37.38C233.214 37.14 233.914 37.02 234.687 37.02C235.127 37.02 235.601 37.08 236.107 37.2C236.627 37.32 237.114 37.52 237.567 37.8C237.781 37.9333 237.921 38.0933 237.987 38.28C238.054 38.4667 238.067 38.66 238.027 38.86C237.987 39.0467 237.901 39.2133 237.767 39.36C237.647 39.4933 237.494 39.58 237.307 39.62C237.121 39.6467 236.914 39.6 236.687 39.48C236.394 39.3067 236.094 39.18 235.787 39.1C235.481 39.0067 235.187 38.96 234.907 38.96C234.467 38.96 234.081 39.0333 233.747 39.18C233.414 39.3133 233.127 39.5133 232.887 39.78C232.661 40.0333 232.487 40.3533 232.367 40.74C232.247 41.1267 232.187 41.5733 232.187 42.08C232.187 43.0667 232.421 43.8467 232.887 44.42C233.367 44.98 234.041 45.26 234.907 45.26C235.187 45.26 235.474 45.22 235.767 45.14C236.074 45.06 236.381 44.9333 236.687 44.76C236.914 44.64 237.114 44.6 237.287 44.64C237.474 44.68 237.627 44.7733 237.747 44.92C237.867 45.0533 237.941 45.22 237.967 45.42C237.994 45.6067 237.967 45.7933 237.887 45.98C237.821 46.1667 237.687 46.32 237.487 46.44C237.047 46.7067 236.581 46.9 236.087 47.02C235.594 47.14 235.127 47.2 234.687 47.2ZM240.841 47.16C240.441 47.16 240.134 47.0533 239.921 46.84C239.707 46.6133 239.601 46.2933 239.601 45.88V34C239.601 33.5867 239.707 33.2733 239.921 33.06C240.134 32.8467 240.441 32.74 240.841 32.74C241.241 32.74 241.547 32.8467 241.761 33.06C241.987 33.2733 242.101 33.5867 242.101 34V39.18H241.821C242.114 38.4733 242.567 37.94 243.181 37.58C243.807 37.2067 244.514 37.02 245.301 37.02C246.087 37.02 246.734 37.1667 247.241 37.46C247.747 37.7533 248.127 38.2 248.381 38.8C248.634 39.3867 248.761 40.1333 248.761 41.04V45.88C248.761 46.2933 248.654 46.6133 248.441 46.84C248.227 47.0533 247.921 47.16 247.521 47.16C247.121 47.16 246.807 47.0533 246.581 46.84C246.367 46.6133 246.261 46.2933 246.261 45.88V41.16C246.261 40.4 246.114 39.8467 245.821 39.5C245.541 39.1533 245.101 38.98 244.501 38.98C243.767 38.98 243.181 39.2133 242.741 39.68C242.314 40.1333 242.101 40.74 242.101 41.5V45.88C242.101 46.7333 241.681 47.16 240.841 47.16Z" fill="white"/>
</svg>
